<svg width="12" height="12" viewBox="0 0 12 12" fill="none" xmlns="http://www.w3.org/2000/svg">
<path d="M4.20711 0.292893C3.81658 -0.0976311 3.18342 -0.0976311 2.79289 0.292893C2.40237 0.683417 2.40237 1.31658 2.79289 1.70711L4.20711 0.292893ZM8.5 6L9.20711 6.70711C9.59763 6.31658 9.59763 5.68342 9.20711 5.29289L8.5 6ZM2.79289 10.2929C2.40237 10.6834 2.40237 11.3166 2.79289 11.7071C3.18342 12.0976 3.81658 12.0976 4.20711 11.7071L2.79289 10.2929ZM2.79289 1.70711L7.79289 6.70711L9.20711 5.29289L4.20711 0.292893L2.79289 1.70711ZM7.79289 5.29289L2.79289 10.2929L4.20711 11.7071L9.20711 6.70711L7.79289 5.29289Z" fill="#133D4D"/>
</svg>
