<svg width="24" height="24" viewBox="0 0 24 24" fill="none" xmlns="http://www.w3.org/2000/svg">
<path d="M12 1C13.4587 1 14.8576 1.56761 15.8891 2.57798C16.9205 3.58834 17.5 4.95868 17.5 6.38755C17.5 7.81641 16.9205 9.18676 15.8891 10.1971C14.8576 11.2075 13.4587 11.7751 12 11.7751C10.5413 11.7751 9.14236 11.2075 8.11091 10.1971C7.07946 9.18676 6.5 7.81641 6.5 6.38755C6.5 4.95868 7.07946 3.58834 8.11091 2.57798C9.14236 1.56761 10.5413 1 12 1ZM12 15.4484C18.0775 15.4484 23 16.8798 23 19.8564V22C23 22.5523 22.5523 23 22 23H2C1.44772 23 1 22.5523 1 22V19.8564C1 16.8798 5.9225 15.4484 12 15.4484Z" stroke="#133D4D" stroke-width="2"/>
</svg>
