<svg width="12" height="22" viewBox="0 0 12 22" fill="none" xmlns="http://www.w3.org/2000/svg">
<path d="M1.70711 0.292893C1.31658 -0.0976311 0.683417 -0.0976311 0.292893 0.292893C-0.0976311 0.683417 -0.0976311 1.31658 0.292893 1.70711L1.70711 0.292893ZM11 11L11.7071 11.7071C12.0976 11.3166 12.0976 10.6834 11.7071 10.2929L11 11ZM0.292893 20.2929C-0.0976311 20.6834 -0.0976311 21.3166 0.292893 21.7071C0.683417 22.0976 1.31658 22.0976 1.70711 21.7071L0.292893 20.2929ZM0.292893 1.70711L10.2929 11.7071L11.7071 10.2929L1.70711 0.292893L0.292893 1.70711ZM10.2929 10.2929L0.292893 20.2929L1.70711 21.7071L11.7071 11.7071L10.2929 10.2929Z" fill="white"/>
</svg>
