<svg width="12" height="12" viewBox="0 0 12 12" fill="none" xmlns="http://www.w3.org/2000/svg">
<path d="M7.79289 0.292893C8.18342 -0.0976311 8.81658 -0.0976311 9.20711 0.292893C9.59763 0.683417 9.59763 1.31658 9.20711 1.70711L7.79289 0.292893ZM3.5 6L2.79289 6.70711C2.40237 6.31658 2.40237 5.68342 2.79289 5.29289L3.5 6ZM9.20711 10.2929C9.59763 10.6834 9.59763 11.3166 9.20711 11.7071C8.81658 12.0976 8.18342 12.0976 7.79289 11.7071L9.20711 10.2929ZM9.20711 1.70711L4.20711 6.70711L2.79289 5.29289L7.79289 0.292893L9.20711 1.70711ZM4.20711 5.29289L9.20711 10.2929L7.79289 11.7071L2.79289 6.70711L4.20711 5.29289Z" fill="#133D4D"/>
</svg>
