<svg width="25" height="24" viewBox="0 0 25 24" fill="none" xmlns="http://www.w3.org/2000/svg">
<path d="M9.91852 23C10.4997 23 10.9708 22.5196 10.9708 21.9271C10.9708 21.3346 10.4997 20.8542 9.91852 20.8542C9.33735 20.8542 8.86621 21.3346 8.86621 21.9271C8.86621 22.5196 9.33735 23 9.91852 23Z" fill="white" stroke="white" stroke-width="2" stroke-linecap="round" stroke-linejoin="round"/>
<path d="M21.4937 23C22.0749 23 22.546 22.5196 22.546 21.9271C22.546 21.3346 22.0749 20.8542 21.4937 20.8542C20.9125 20.8542 20.4414 21.3346 20.4414 21.9271C20.4414 22.5196 20.9125 23 21.4937 23Z" fill="white" stroke="white" stroke-width="2" stroke-linecap="round" stroke-linejoin="round"/>
<path d="M1.5 1H5.5L8.18 14.6511C8.27144 15.1205 8.52191 15.5421 8.88755 15.8422C9.25318 16.1422 9.7107 16.3017 10.18 16.2925H19.9C20.3693 16.3017 20.8268 16.1422 21.1925 15.8422C21.5581 15.5421 21.8086 15.1205 21.9 14.6511L23.5 6.09749H6.5" stroke="white" stroke-width="2" stroke-linecap="round" stroke-linejoin="round"/>
</svg>
