<svg width="70" height="70" viewBox="0 0 70 70" fill="none" xmlns="http://www.w3.org/2000/svg">
<path d="M55.3 60.7766H13.6C11.6 60.7766 10 59.1766 10 57.1766V25.5766C10 25.0766 10.4 24.7766 10.8 24.7766C11.2 24.7766 11.6 25.1766 11.6 25.5766V57.1766C11.6 58.2766 12.5 59.0766 13.5 59.0766H54.4V49.2766C54.4 48.7766 54.8 48.4766 55.2 48.4766C55.7 48.4766 56 48.8766 56 49.2766V59.9766C56.2 60.3766 55.8 60.7766 55.3 60.7766Z" fill="#133D4D"/>
<path d="M55.3 40.2766C54.8 40.2766 54.5 39.8766 54.5 39.4766V29.1766H13.6C11.6 29.1766 10 27.5766 10 25.5766C10 23.5766 11.6 21.9766 13.6 21.9766H23.7C24.2 21.9766 24.5 22.3766 24.5 22.7766C24.5 23.1766 24.1 23.5766 23.7 23.5766H13.6C12.5 23.5766 11.7 24.4766 11.7 25.4766C11.7 26.5766 12.6 27.3766 13.6 27.3766H54.7C55.5 27.3766 56.2 28.0766 56.2 28.8766V39.3766C56.2 39.8766 55.8 40.2766 55.3 40.2766Z" fill="#133D4D"/>
<path d="M59.5 57.0767H55.3C54.8 57.0767 54.5 56.6767 54.5 56.2767C54.5 55.7767 54.9 55.4767 55.3 55.4767H58.6V24.0767C58.6 23.8767 58.4 23.6767 58.2 23.6767L43.5 23.6767C43 23.6767 42.7 23.2767 42.7 22.8767C42.7 22.4767 43.1 22.0767 43.5 22.0767L58.2 22.0767C59.4 22.0767 60.3 22.9767 60.3 24.1767V56.2767C60.3 56.6767 60 57.0767 59.5 57.0767Z" fill="#133D4D"/>
<path d="M59.4998 50.1767H47.5998C44.3998 50.1767 41.7998 47.5767 41.7998 44.3767C41.7998 41.1767 44.3998 38.5767 47.5998 38.5767H59.4998C59.9998 38.5767 60.2998 38.9767 60.2998 39.3767V49.1767C60.2998 49.7767 59.9998 50.1767 59.4998 50.1767ZM47.5998 40.2767C45.3998 40.2767 43.4998 42.0767 43.4998 44.3767C43.4998 46.6767 45.2998 48.4767 47.5998 48.4767H58.5998V40.3767H47.5998V40.2767Z" fill="#133D4D"/>
<path d="M59.4998 50.1767H47.5998C44.3998 50.1767 41.7998 47.5767 41.7998 44.3767C41.7998 41.1767 44.3998 38.5767 47.5998 38.5767H59.4998C59.9998 38.5767 60.2998 38.9767 60.2998 39.3767V49.1767C60.2998 49.7767 59.9998 50.1767 59.4998 50.1767ZM47.5998 40.2767C45.3998 40.2767 43.4998 42.0767 43.4998 44.3767C43.4998 46.6767 45.2998 48.4767 47.5998 48.4767H58.5998V40.3767H47.5998V40.2767Z" fill="#133D4D"/>
<path d="M40.9999 29.1766H21.3999C21.0999 29.1766 20.8999 29.0766 20.6999 28.7766C20.4999 28.5766 20.4999 28.2766 20.5999 27.9766L27.7999 10.4766C28.2999 9.27659 29.6999 8.67659 30.8999 9.17659L44.6999 14.5766C45.8999 15.0766 46.4999 16.4766 46.0999 17.6766L41.7999 28.6766C41.5999 28.9766 41.2999 29.1766 40.9999 29.1766ZM22.6999 27.4766H40.3999L41.0999 25.5766L41.8999 25.8766L41.0999 25.5766L44.4999 16.9766C44.5999 16.7766 44.5999 16.5766 44.4999 16.4766C44.3999 16.2766 44.2999 16.1766 44.0999 16.0766L30.2999 10.7766C29.8999 10.6766 29.4999 10.7766 29.3999 11.1766L22.6999 27.4766Z" fill="#133D4D"/>
<path d="M30.9 29.1766H26C25.7 29.1766 25.5 29.0766 25.3 28.7766C25.1 28.5766 25.1 28.2766 25.2 27.9766L32.1 10.4766C32.2 10.2766 32.3 10.0766 32.5 9.97661C32.7 9.87661 32.9 9.87661 33.1 9.97661L37.4 11.6766C37.8 11.8766 38 12.3766 37.9 12.7766L31.7 28.6766C31.6 28.9766 31.2 29.1766 30.9 29.1766ZM27.2 27.4766H30.3L36 12.9766L33.3 11.8766L27.2 27.4766Z" fill="#133D4D"/>
</svg>
