<svg width="70" height="70" viewBox="0 0 70 70" fill="none" xmlns="http://www.w3.org/2000/svg">
<path d="M37.2294 62.7001H32.3345C30.7437 62.7001 29.52 61.4764 29.52 59.8856V53.6446C29.52 52.0538 30.7437 50.8301 32.3345 50.8301H37.2294C38.8202 50.8301 40.0439 52.0538 40.0439 53.6446V59.8856C40.0439 61.4764 38.8202 62.7001 37.2294 62.7001ZM32.2122 52.5433C31.6003 52.5433 31.1108 53.0328 31.1108 53.6446V59.8856C31.1108 60.4974 31.6003 60.9869 32.2122 60.9869H37.107C37.7189 60.9869 38.2084 60.4974 38.2084 59.8856V53.6446C38.2084 53.0328 37.7189 52.5433 37.107 52.5433H32.2122Z" fill="#133D4D"/>
<path d="M34.6598 52.5432C34.1703 52.5432 33.8032 52.1761 33.8032 51.6866V48.1379C33.8032 47.6484 34.1703 47.2812 34.6598 47.2812C35.1493 47.2812 35.5164 47.6484 35.5164 48.1379V51.6866C35.6388 52.0537 35.1493 52.5432 34.6598 52.5432Z" fill="#133D4D"/>
<path d="M37.8411 48.9944H31.6002C31.1107 48.9944 30.7436 48.6274 30.7436 48.1379L29.7646 34.677C29.3975 30.1493 29.5199 25.6215 29.887 21.2162L30.7436 11.9159C30.7436 11.4265 31.1107 11.0593 31.6002 11.0593H37.8411C38.3306 11.0593 38.6978 11.4265 38.6978 11.9159L39.5543 21.2162C39.9214 25.6215 40.0438 30.2717 39.6767 34.677L38.6978 48.1379C38.6978 48.6274 38.3306 48.9944 37.8411 48.9944ZM32.4568 47.1589H37.1069L37.9635 34.4323C38.3306 30.0269 38.2083 25.6215 37.8411 21.2162L37.1069 12.7725H32.4568L31.7226 21.2162C31.3555 25.6215 31.2331 30.0269 31.6002 34.4323L32.4568 47.1589Z" fill="#133D4D"/>
<path d="M38.3307 12.8948H30.9885C30.1319 12.8948 29.52 12.1606 29.52 11.4264V9.59079C29.52 8.73419 30.2542 8.12231 30.9885 8.12231H38.3307C39.1873 8.12231 39.7992 8.85656 39.7992 9.59079V11.4264C39.9216 12.1606 39.1873 12.8948 38.3307 12.8948ZM31.3556 11.0592H38.2084V9.71313H31.3556V11.0592Z" fill="#133D4D"/>
<path d="M21.3211 59.6407H15.0802C14.5907 59.6407 14.2236 59.2736 14.2236 58.7841L13.367 49.4838C12.9999 45.0785 12.8775 40.5507 13.2446 36.023L14.2236 22.5621C14.2236 22.0727 14.5907 21.7056 15.0802 21.7056H21.3211C21.8106 21.7056 22.1777 22.0727 22.1777 22.5621L23.1567 36.023C23.5238 40.5507 23.4014 45.0785 23.0343 49.4838L22.1777 58.7841C22.1777 59.2736 21.8106 59.6407 21.3211 59.6407ZM15.8144 57.8051H20.4645L21.1987 49.3615C21.5659 44.9561 21.6882 40.5507 21.3211 36.1454L20.4645 23.4188H15.8144L14.9578 36.1454C14.5907 40.5507 14.7131 44.9561 15.0802 49.3615L15.8144 57.8051Z" fill="#133D4D"/>
<path d="M21.8107 62.7H14.4684C13.6118 62.7 13 61.9657 13 61.2315V59.3959C13 58.5393 13.7342 57.9275 14.4684 57.9275H21.8107C22.6673 57.9275 23.2792 58.6617 23.2792 59.3959V61.2315C23.4016 61.9657 22.6673 62.7 21.8107 62.7ZM14.7132 60.8644H21.566V59.5183H14.7132V60.8644Z" fill="#133D4D"/>
<path d="M54.116 59.6408H47.8751C47.3856 59.6408 47.0185 59.2737 47.0185 58.7842L46.1619 49.4839C45.7948 45.0786 45.6724 40.5508 46.0395 36.0231L47.0185 25.4992C47.0185 25.0097 47.3856 24.6426 47.8751 24.6426H54.116C54.6055 24.6426 54.9726 25.0097 54.9726 25.4992L55.9516 36.0231C56.3187 40.5508 56.1964 45.0786 55.8293 49.4839L54.9726 58.7842C54.9726 59.2737 54.6055 59.6408 54.116 59.6408ZM48.6093 57.8052H53.2594L53.9937 49.3616C54.3608 44.9562 54.4831 40.5508 54.116 36.1455L53.2594 26.3558H48.6093L47.7527 36.1455C47.3856 40.5508 47.508 44.9562 47.8751 49.3616L48.6093 57.8052Z" fill="#133D4D"/>
<path d="M54.6062 62.7H47.2639C46.4073 62.7 45.7954 61.9657 45.7954 61.2315V59.3959C45.7954 58.5393 46.5297 57.9275 47.2639 57.9275H54.6062C55.4628 57.9275 56.0746 58.6617 56.0746 59.3959V61.2315C56.197 61.9657 55.4628 62.7 54.6062 62.7ZM47.631 60.8644H54.4838V59.5183H47.631V60.8644Z" fill="#133D4D"/>
<path d="M18.1398 23.4188C17.6503 23.4188 17.2832 23.0517 17.2832 22.5622V18.2792C17.2832 17.7897 17.6503 17.4226 18.1398 17.4226C18.6293 17.4226 18.9964 17.7897 18.9964 18.2792V22.5622C18.9964 23.0517 18.6293 23.4188 18.1398 23.4188Z" fill="#133D4D"/>
<path d="M20.9539 18.891H15.3248C15.08 18.891 14.8353 18.7687 14.5905 18.5239C14.4682 18.2792 14.3458 18.0345 14.4682 17.7897L16.5485 8.73424C16.6709 8.36712 17.038 8 17.4051 8H18.7512C19.1183 8 19.4854 8.24475 19.6078 8.73424L21.6881 17.7897C21.8104 18.0345 21.6881 18.2792 21.5657 18.5239C21.4434 18.7687 21.1986 18.891 20.9539 18.891ZM16.4261 17.0555H19.7302L18.0169 9.95795L16.4261 17.0555Z" fill="#133D4D"/>
<path d="M50.9351 21.5831C47.3863 21.5831 44.5718 18.7685 44.5718 15.2197C44.5718 11.671 47.3863 8.85645 50.9351 8.85645C54.4839 8.85645 57.2984 11.671 57.2984 15.2197C57.2984 18.6461 54.4839 21.5831 50.9351 21.5831ZM50.9351 10.5696C48.3653 10.5696 46.285 12.6499 46.285 15.2197C46.285 17.7895 48.3653 19.8699 50.9351 19.8699C53.5049 19.8699 55.5852 17.7895 55.5852 15.2197C55.5852 12.6499 53.5049 10.5696 50.9351 10.5696Z" fill="#133D4D"/>
<path d="M50.9347 26.4779C50.4453 26.4779 50.0781 26.1108 50.0781 25.6213V20.7265C50.0781 20.237 50.4453 19.8699 50.9347 19.8699C51.4242 19.8699 51.7913 20.237 51.7913 20.7265V25.6213C51.9137 25.9884 51.4242 26.4779 50.9347 26.4779Z" fill="#133D4D"/>
</svg>
