<svg width="70" height="70" viewBox="0 0 70 70" fill="none" xmlns="http://www.w3.org/2000/svg">
<path d="M60.5253 49.48H65.1373C66.0916 49.48 66.8867 48.68 66.8867 47.72V33.8C66.8867 33.48 66.8867 33.16 66.7277 33L60.8434 21.48C60.5253 20.84 59.8891 20.52 59.253 20.52H39.8506V49.32" stroke="#133D4D" stroke-width="2" stroke-miterlimit="10" stroke-linecap="round" stroke-linejoin="round"/>
<path d="M61.957 35.08L57.1859 25.48H46.2124V35.08H61.957Z" stroke="#133D4D" stroke-width="2" stroke-miterlimit="10" stroke-linecap="round" stroke-linejoin="round"/>
<path d="M22.3569 49.48H40.6461H46.2124" stroke="#133D4D" stroke-width="2" stroke-miterlimit="10" stroke-linecap="round" stroke-linejoin="round"/>
<path d="M9.63391 49.48H3.27246V16.84C3.27246 15.4 4.38571 14.28 5.81704 14.28H37.3062C38.7375 14.28 39.8508 15.4 39.8508 16.84V23.4" stroke="#133D4D" stroke-width="2" stroke-miterlimit="10" stroke-linecap="round" stroke-linejoin="round"/>
<path d="M15.9952 55.8801C19.5086 55.8801 22.3567 53.0147 22.3567 49.4801C22.3567 45.9455 19.5086 43.0801 15.9952 43.0801C12.4819 43.0801 9.63379 45.9455 9.63379 49.4801C9.63379 53.0147 12.4819 55.8801 15.9952 55.8801Z" stroke="#133D4D" stroke-width="2" stroke-miterlimit="10" stroke-linecap="round" stroke-linejoin="round"/>
<path d="M54.1642 55.8801C57.6775 55.8801 60.5256 53.0147 60.5256 49.4801C60.5256 45.9455 57.6775 43.0801 54.1642 43.0801C50.6509 43.0801 47.8027 45.9455 47.8027 49.4801C47.8027 53.0147 50.6509 55.8801 54.1642 55.8801Z" stroke="#133D4D" stroke-width="2" stroke-miterlimit="10" stroke-linecap="round" stroke-linejoin="round"/>
</svg>
