<svg width="70" height="70" viewBox="0 0 70 70" fill="none" xmlns="http://www.w3.org/2000/svg">
<path d="M60.5951 47.7862H9.40485C7.52631 47.7862 6 46.3414 6 44.5632V13.2229C6 11.4448 7.52631 10 9.40485 10H60.5951C62.4737 10 64 11.4448 64 13.2229V44.5632C64 46.3414 62.4737 47.7862 60.5951 47.7862ZM9.52227 12.0004C8.70041 12.0004 8.11335 12.5561 8.11335 13.3341V44.6744C8.11335 45.4523 8.70041 46.008 9.52227 46.008H60.7126C61.5344 46.008 62.1214 45.4523 62.1214 44.6744V13.2229C62.1214 12.445 61.5344 11.8893 60.7126 11.8893H9.52227V12.0004Z" fill="#133D4D"/>
<path d="M45.4492 54.4544H24.6678C24.0807 54.4544 23.7285 54.0098 23.7285 53.5653V46.8971C23.7285 46.3415 24.1981 46.0081 24.6678 46.0081H45.4492C46.0362 46.0081 46.3884 46.4526 46.3884 46.8971V53.5653C46.5058 54.0098 46.0362 54.4544 45.4492 54.4544ZM25.607 52.5651H44.3925V47.7862H25.607V52.5651Z" fill="#133D4D"/>
<path d="M57.0729 59.8999H13.1619C12.5749 59.8999 12.2227 59.4554 12.2227 59.0108C12.2227 55.4545 15.2753 52.5649 19.0324 52.5649H51.3198C55.0769 52.5649 58.1296 55.4545 58.1296 59.0108C58.0121 59.5665 57.5425 59.8999 57.0729 59.8999ZM14.2186 58.0106H55.8988C55.4292 55.899 53.5506 54.3431 51.2024 54.3431H18.915C16.5668 54.4542 14.6883 56.0101 14.2186 58.0106Z" fill="#133D4D"/>
<path d="M34.5304 38.8952H19.6195C19.0324 38.8952 18.6802 38.4507 18.6802 38.0061V24.6698C18.6802 24.1142 19.1498 23.7808 19.6195 23.7808C20.0891 23.7808 20.5587 24.2253 20.5587 24.6698V37.0059H33.4737V24.6698C33.4737 24.1142 33.9433 23.7808 34.413 23.7808C35 23.7808 35.3523 24.2253 35.3523 24.6698V37.895C35.4697 38.4507 35 38.8952 34.5304 38.8952Z" fill="#133D4D"/>
<path d="M36.5258 23.114C36.4084 23.114 36.291 23.114 36.1736 23.0029L27.1331 19.3354L18.0926 23.0029C17.623 23.2252 17.0359 23.0029 16.8011 22.5583C16.5663 22.1138 16.8011 21.5581 17.2708 21.3358L26.7809 17.5572C27.0157 17.4461 27.2505 17.4461 27.6027 17.5572L37.1129 21.3358C37.5825 21.5581 37.8173 22.1138 37.5825 22.5583C37.2303 22.8917 36.878 23.114 36.5258 23.114Z" fill="#133D4D"/>
<path d="M37.9353 38.8954H15.9798C15.3928 38.8954 15.0405 38.4508 15.0405 38.0063C15.0405 37.4506 15.5102 37.1172 15.9798 37.1172H37.9353C38.5223 37.1172 38.8746 37.5617 38.8746 38.0063C38.992 38.4508 38.5223 38.8954 37.9353 38.8954Z" fill="#133D4D"/>
<path d="M53.6675 24.7811H43.4529C42.8659 24.7811 42.5137 24.3366 42.5137 23.892C42.5137 23.4475 42.9833 23.0029 43.4529 23.0029H53.6675C54.2546 23.0029 54.6068 23.4475 54.6068 23.892C54.6068 24.3366 54.2546 24.7811 53.6675 24.7811Z" fill="#133D4D"/>
<path d="M53.6675 29.8934H43.4529C42.8659 29.8934 42.5137 29.4489 42.5137 29.0043C42.5137 28.4486 42.9833 28.1152 43.4529 28.1152H53.6675C54.2546 28.1152 54.6068 28.5598 54.6068 29.0043C54.7242 29.4489 54.2546 29.8934 53.6675 29.8934Z" fill="#133D4D"/>
<path d="M53.6675 35.0057H43.4529C42.8659 35.0057 42.5137 34.5612 42.5137 34.1166C42.5137 33.5609 42.9833 33.2275 43.4529 33.2275H53.6675C54.2546 33.2275 54.6068 33.6721 54.6068 34.1166C54.7242 34.5612 54.2546 35.0057 53.6675 35.0057Z" fill="#133D4D"/>
</svg>
