<svg width="18" height="14" viewBox="0 0 18 14" fill="none" xmlns="http://www.w3.org/2000/svg">
<path d="M17.9486 6.77522L16.02 2.47017C15.9708 2.35901 15.8885 2.26416 15.7833 2.19745C15.6781 2.13074 15.5548 2.09512 15.4286 2.09502H13.5V0.865006C13.5 0.701896 13.4323 0.545467 13.3117 0.430131C13.1912 0.314795 13.0276 0.25 12.8571 0.25H0.642857C0.472361 0.25 0.308848 0.314795 0.188288 0.430131C0.0677294 0.545467 0 0.701896 0 0.865006V11.3201C0 11.4832 0.0677294 11.6397 0.188288 11.755C0.308848 11.8703 0.472361 11.9351 0.642857 11.9351H2.01857C2.16661 12.4563 2.48979 12.9163 2.93824 13.2443C3.38669 13.5723 3.9355 13.75 4.5 13.75C5.06449 13.75 5.61331 13.5723 6.06176 13.2443C6.51021 12.9163 6.83339 12.4563 6.98143 11.9351H11.0186C11.1666 12.4563 11.4898 12.9163 11.9382 13.2443C12.3867 13.5723 12.9355 13.75 13.5 13.75C14.0645 13.75 14.6133 13.5723 15.0618 13.2443C15.5102 12.9163 15.8334 12.4563 15.9814 11.9351H17.3571C17.5276 11.9351 17.6912 11.8703 17.8117 11.755C17.9323 11.6397 18 11.4832 18 11.3201V7.01507C17.9998 6.93263 17.9823 6.85106 17.9486 6.77522ZM13.5 3.32503H15.0043L16.38 6.40006H13.5V3.32503ZM4.5 12.5501C4.24571 12.5501 3.99713 12.478 3.7857 12.3428C3.57426 12.2077 3.40947 12.0156 3.31215 11.7908C3.21484 11.5661 3.18938 11.3187 3.23899 11.0801C3.2886 10.8415 3.41105 10.6224 3.59086 10.4504C3.77067 10.2783 3.99977 10.1612 4.24917 10.1137C4.49857 10.0663 4.75709 10.0906 4.99202 10.1837C5.22695 10.2768 5.42776 10.4345 5.56903 10.6368C5.71031 10.839 5.78571 11.0768 5.78571 11.3201C5.78571 11.6463 5.65026 11.9592 5.40914 12.1899C5.16802 12.4205 4.84099 12.5501 4.5 12.5501ZM11.0186 10.7051H6.98143C6.83339 10.184 6.51021 9.72391 6.06176 9.39592C5.61331 9.06793 5.06449 8.89022 4.5 8.89022C3.9355 8.89022 3.38669 9.06793 2.93824 9.39592C2.48979 9.72391 2.16661 10.184 2.01857 10.7051H1.28571V1.48001H12.2143V9.20449C11.9216 9.36703 11.6652 9.58325 11.4601 9.84076C11.2549 10.0983 11.1048 10.392 11.0186 10.7051ZM13.5 12.5501C13.2457 12.5501 12.9971 12.478 12.7857 12.3428C12.5743 12.2077 12.4095 12.0156 12.3122 11.7908C12.2148 11.5661 12.1894 11.3187 12.239 11.0801C12.2886 10.8415 12.4111 10.6224 12.5909 10.4504C12.7707 10.2783 12.9998 10.1612 13.2492 10.1137C13.4986 10.0663 13.7571 10.0906 13.992 10.1837C14.227 10.2768 14.4278 10.4345 14.569 10.6368C14.7103 10.839 14.7857 11.0768 14.7857 11.3201C14.7857 11.6463 14.6503 11.9592 14.4091 12.1899C14.168 12.4205 13.841 12.5501 13.5 12.5501ZM16.7143 10.7051H15.9814C15.8393 10.1784 15.5186 9.71157 15.0696 9.37773C14.6206 9.04389 14.0686 8.86185 13.5 8.86009V7.63007H16.7143V10.7051Z" fill="#B5C9CE"/>
</svg>
