<svg width="249" height="88" viewBox="0 0 249 88" fill="none" xmlns="http://www.w3.org/2000/svg">
<path d="M237.305 64.5203C237.24 64.5203 237.175 64.5203 237.11 64.5203C237.208 63.5447 237.305 62.5366 237.305 61.4959C237.305 46.8618 225.448 34.9919 210.83 34.9919C204.105 34.9919 197.998 37.5284 193.353 41.626C189.552 35.6748 183.704 31.122 176.818 29.0407C170.71 12.0976 154.5 0 135.496 0C111.23 0 91.5436 19.7073 91.5436 44C91.5436 44.748 91.5761 45.5284 91.6086 46.2764C87.3855 42.5366 81.863 40.2276 75.7882 40.2276C74.9111 40.2276 74.034 40.2927 73.1894 40.3902C67.9917 28.1626 55.8747 19.6098 41.7761 19.6098C22.9021 19.6098 7.60156 34.9268 7.60156 53.8211C7.60156 57.6585 8.25127 61.3333 9.38825 64.7805C4.02818 65.8537 0 70.6016 0 76.2602C0 82.7317 5.26262 88 11.7272 88H237.273C243.77 88 249 82.7317 249 76.2602C249.032 69.7886 243.77 64.5203 237.305 64.5203Z" fill="white"/>
</svg>
