<svg width="109" height="63" viewBox="0 0 109 63" fill="none" xmlns="http://www.w3.org/2000/svg">
<path d="M101.911 48.8049C101.489 48.8049 101.082 48.8503 100.69 48.926C102.922 46.2474 104.279 42.8122 104.279 39.0591C104.279 33.9592 101.791 29.4494 97.9899 26.6498C96.2856 11.6527 83.6164 0 68.2174 0C51.6721 0 38.2488 13.4687 38.2488 30.0699C38.2488 31.0384 38.294 31.9918 38.3845 32.9301C38.3393 32.9301 38.294 32.9301 38.2488 32.9301C35.911 32.9301 33.709 33.5203 31.7936 34.5645C28.5659 30.2818 23.453 27.4972 17.6916 27.4972C7.91822 27.4972 0 35.4422 0 45.2486C0 55.055 7.91822 63 17.6916 63H101.926C105.833 63 109 59.822 109 55.9025C109 51.9829 105.818 48.8049 101.911 48.8049Z" fill="white"/>
</svg>
