<svg width="12" height="14" viewBox="0 0 12 14" fill="none" xmlns="http://www.w3.org/2000/svg">
<path fill-rule="evenodd" clip-rule="evenodd" d="M4.22318 1.54135C4.36895 1.39559 4.56665 1.3137 4.7728 1.3137H7.22734C7.43349 1.3137 7.63119 1.39559 7.77696 1.54135C7.92273 1.68712 8.00462 1.88482 8.00462 2.09097V2.86824H3.99553V2.09097C3.99553 1.88482 4.07742 1.68712 4.22318 1.54135ZM3.09553 2.86824V2.09097C3.09553 1.64613 3.27224 1.21951 3.58679 0.904958C3.90134 0.590408 4.32796 0.413696 4.7728 0.413696H7.22734C7.67218 0.413696 8.0988 0.590408 8.41335 0.904958C8.7279 1.21951 8.90462 1.64613 8.90462 2.09097V2.86824H10.2955L11.5228 2.86824C11.7713 2.86824 11.9728 3.06971 11.9728 3.31824C11.9728 3.56677 11.7713 3.76824 11.5228 3.76824H10.7455V11.9092C10.7455 12.354 10.5688 12.7806 10.2543 13.0952C9.93971 13.4097 9.51309 13.5864 9.06825 13.5864H2.93189C2.48705 13.5864 2.06043 13.4097 1.74588 13.0952C1.43133 12.7806 1.25462 12.354 1.25462 11.9092V3.76824H0.477344C0.228816 3.76824 0.0273438 3.56677 0.0273438 3.31824C0.0273438 3.06971 0.228816 2.86824 0.477344 2.86824L1.70462 2.86824H3.09553ZM2.15462 3.76824V11.9092C2.15462 12.1153 2.23651 12.313 2.38227 12.4588C2.52804 12.6045 2.72574 12.6864 2.93189 12.6864H9.06825C9.2744 12.6864 9.4721 12.6045 9.61787 12.4588C9.76363 12.313 9.84553 12.1153 9.84553 11.9092V3.76824H8.45462H3.54553H2.15462ZM4.7728 5.93642C5.02133 5.93642 5.2228 6.1379 5.2228 6.38642V10.0682C5.2228 10.3168 5.02133 10.5182 4.7728 10.5182C4.52427 10.5182 4.3228 10.3168 4.3228 10.0682V6.38642C4.3228 6.1379 4.52427 5.93642 4.7728 5.93642ZM7.67734 6.38642C7.67734 6.1379 7.47587 5.93642 7.22734 5.93642C6.97882 5.93642 6.77734 6.1379 6.77734 6.38642V10.0682C6.77734 10.3168 6.97882 10.5182 7.22734 10.5182C7.47587 10.5182 7.67734 10.3168 7.67734 10.0682V6.38642Z" fill="#96ACB3"/>
</svg>
