<svg width="24" height="24" viewBox="0 0 24 24" fill="none" xmlns="http://www.w3.org/2000/svg">
<path d="M21.3036 3.70184C20.766 3.16231 20.1278 2.73431 19.4253 2.4423C18.7228 2.1503 17.9699 2 17.2095 2C16.4491 2 15.6961 2.1503 14.9936 2.4423C14.2912 2.73431 13.6529 3.16231 13.1153 3.70184L11.9997 4.82104L10.8841 3.70184C9.79826 2.61253 8.32556 2.00056 6.78997 2.00056C5.25437 2.00056 3.78167 2.61253 2.69584 3.70184C1.61001 4.79115 1 6.26857 1 7.80908C1 9.34959 1.61001 10.827 2.69584 11.9163L3.81147 13.0355L11.9997 21.25L20.188 13.0355L21.3036 11.9163C21.8414 11.377 22.268 10.7367 22.5591 10.032C22.8502 9.32728 23 8.57192 23 7.80908C23 7.04624 22.8502 6.29088 22.5591 5.58615C22.268 4.88142 21.8414 4.24112 21.3036 3.70184Z" stroke="#133D4D" stroke-width="2" stroke-linecap="round" stroke-linejoin="round"/>
</svg>
