<svg width="22" height="22" viewBox="0 0 22 22" fill="none" xmlns="http://www.w3.org/2000/svg">
<path fill-rule="evenodd" clip-rule="evenodd" d="M19.8695 6.86572H10.8506C10.4903 5.84618 9.51794 5.11572 8.375 5.11572C7.23206 5.11572 6.25972 5.84618 5.89937 6.86572H3.00551C2.58825 6.86572 2.25 7.25747 2.25 7.74072C2.25 8.22397 2.58825 8.61572 3.00551 8.61572H5.89937C6.25972 9.63527 7.23206 10.3657 8.375 10.3657C9.51794 10.3657 10.4903 9.63527 10.8506 8.61572H19.8695C20.2867 8.61572 20.625 8.22397 20.625 7.74072C20.625 7.25747 20.2867 6.86572 19.8695 6.86572ZM3.00551 13.8657C2.58825 13.8657 2.25 14.2575 2.25 14.7407C2.25 15.224 2.58825 15.6157 3.00551 15.6157H12.0244C12.3847 16.6353 13.3571 17.3657 14.5 17.3657C15.6429 17.3657 16.6153 16.6353 16.9756 15.6157H19.8695C20.2867 15.6157 20.625 15.224 20.625 14.7407C20.625 14.2575 20.2867 13.8657 19.8695 13.8657H16.9756C16.6153 12.8462 15.6429 12.1157 14.5 12.1157C13.3571 12.1157 12.3847 12.8462 12.0244 13.8657H3.00551Z" fill="white"/>
</svg>
