<svg width="198" height="43" viewBox="0 0 198 43" fill="none" xmlns="http://www.w3.org/2000/svg">
<path d="M28.7694 6.39734C28.49 6.00898 28.0429 5.73158 27.5958 6.00898C27.1487 6.28638 27.7634 7.17406 28.2106 7.89529C27.5958 7.39597 25.472 7.83981 25.472 7.83981C25.472 7.83981 27.8752 4.0117 28.6577 2.6247C27.8752 0.738387 24.466 -0.48217 22.957 0.183588C22.1746 2.9021 21.448 6.17542 21.448 6.17542C21.448 6.17542 19.7714 4.17814 18.9889 4.67746C18.1506 5.23226 19.939 7.28501 23.0129 8.39461C24.6337 8.94941 25.9191 9.22681 26.8133 9.17133C26.6457 9.83709 27.5958 11.3905 29.1048 12.3337C28.8812 14.109 28.0429 15.0522 27.1487 15.496C26.9251 13.5542 25.975 11.5015 23.0129 11.1131C21.1127 10.8912 18.7654 11.7234 17.3682 12.1118C17.5917 12.6666 19.4919 13.2768 21.448 13.4988C21.6157 13.4988 21.7834 13.6652 21.7834 13.8871C21.7834 14.0536 21.6157 14.22 21.448 14.22C21.448 14.22 21.448 14.22 21.3922 14.22C18.6536 13.9426 17.5358 12.9994 15.9151 12.1672C14.1825 11.2796 12.6176 10.5583 9.99088 11.1686C8.09066 11.6124 6.86111 12.4446 6.19045 13.7762C5.29623 15.4406 5.18446 17.8262 6.24634 20.9331C3.17247 21.9872 2.16648 25.0941 2.44592 26.703C0.489818 27.4242 -0.516173 30.0873 0.266267 30.642C0.769265 30.864 1.32815 28.9777 1.60759 29.366C1.32815 29.7544 0.378046 32.0845 1.55171 32.3619C2.22237 32.5284 2.0547 30.864 2.50181 30.1982L4.12258 42.0154C4.12258 42.1264 4.34613 42.2373 4.56969 42.1819C4.79324 42.1264 4.9609 42.0154 4.9609 41.9045L3.28425 29.9208C4.17846 30.0873 3.22836 31.3078 4.0108 31.4188C4.96091 31.5852 5.68746 28.09 4.29024 27.2023C3.67547 25.7598 4.84913 23.1523 7.08467 23.0413C7.19645 23.3187 7.36411 23.5406 7.47589 23.818C12.8971 33.9708 15.2444 36.4674 15.1885 37.4661C14.8532 38.1873 11.4999 40.9613 12.5059 42.7367C13.1206 43.7908 16.0827 41.4606 17.7035 39.6298C18.3742 38.8531 18.7654 38.2983 18.3183 35.9126C17.8153 33.0277 16.6416 30.0318 18.5977 29.6989C20.8333 29.3105 24.466 34.9695 25.975 34.6921C27.3722 34.4702 30.502 31.1968 29.2166 30.1982C28.49 29.6434 26.5898 31.1968 25.975 31.5297C25.1367 31.0304 25.975 24.3728 26.5339 21.155C26.7016 20.1564 26.8692 19.2687 26.9251 18.6584C26.981 18.381 26.981 18.1036 27.0369 17.7152C30.6696 16.3282 30.7255 12.5556 30.7255 12.5556C32.7934 10.8912 30.2225 5.73158 28.7694 6.39734ZM28.7135 9.72613C28.2106 10.059 27.8752 9.44873 27.5399 9.11585C28.2106 8.94941 28.49 8.61653 28.3782 8.17269C29.1048 9.28229 29.0489 9.44873 28.7135 9.72613ZM19.8273 15.3851C20.3862 15.3296 20.8892 15.718 20.945 16.2728C21.0009 16.8276 20.6097 17.3269 20.0508 17.3824C19.4919 17.4378 18.9889 17.0495 18.933 16.4947C18.8772 15.9399 19.2684 15.4406 19.8273 15.3851ZM12.8412 16.3282C13.4001 16.2728 13.9031 16.6611 13.959 17.2159C14.0149 17.7707 13.6236 18.27 13.0647 18.3255C12.5059 18.381 12.0029 17.9926 11.947 17.4378C11.8911 16.883 12.3382 16.3837 12.8412 16.3282ZM21.1127 23.0968C18.8213 23.2077 17.6476 22.0981 17.2564 21.7098C17.0328 22.2091 16.3063 23.5961 14.1266 24.2619C10.1027 25.4824 8.59366 22.7639 8.31422 21.0995C9.09666 21.4324 10.1027 22.5975 12.3382 20.7111C14.6855 18.27 16.4181 19.1022 16.9769 19.4906C17.4241 18.8803 18.7095 17.7152 21.5598 19.1577C24.2425 20.2118 24.8572 18.7694 25.472 18.1591C25.7515 19.8235 25.3043 22.9303 21.1127 23.0968Z" fill="#15AD84"/>
<path d="M48.6661 9.72607C54.9256 9.72607 58.8378 13.1103 58.8378 21.7652C58.8378 30.4201 54.9256 33.8043 48.6661 33.8043H40.6182V9.72607H48.6661ZM48.3308 30.2536C51.6841 30.2536 54.0873 28.8112 54.0873 21.7652C54.0873 14.6638 51.6282 13.2768 48.3308 13.2768H44.9775V30.2536H48.3308Z" fill="#163B4C"/>
<path d="M66.8854 26.3146C67.2207 29.6989 68.7297 30.5866 71.1329 30.5866C73.4244 30.5866 75.0451 29.8099 75.0451 29.8099C75.7717 30.4756 76.3306 31.5852 76.3306 32.8058C76.3306 32.8058 74.3186 34.1928 70.5182 34.1928C64.9293 34.1928 62.4702 31.0304 62.4702 24.9831C62.4702 18.6584 65.5441 15.9954 70.2946 15.9954C74.5421 15.9954 77.3366 18.1036 77.3366 22.9304C77.3366 25.0941 76.9454 26.4256 76.9454 26.4256H66.8854V26.3146ZM70.2946 19.1577C68.5621 19.1577 67.2207 20.2673 66.9413 23.3742H72.9773C73.0331 22.9858 73.0332 22.653 73.0332 22.2646C73.0332 20.5447 72.4743 19.1577 70.2946 19.1577Z" fill="#163B4C"/>
<path d="M95.6119 33.4715C95.6119 33.4715 94.8294 33.7489 93.4322 33.7489C91.9232 33.7489 91.2526 33.4715 91.2526 33.4715V21.6543C91.2526 20.2118 90.4701 19.2687 88.514 19.2687C87.3962 19.2687 86.3343 19.7125 85.496 20.4892V33.4715C85.496 33.4715 84.7695 33.7489 83.3164 33.7489C81.8074 33.7489 81.1367 33.4715 81.1367 33.4715V16.4947C81.1367 16.4947 81.8074 16.2173 83.3164 16.2173C84.7136 16.2173 85.496 16.4947 85.496 16.4947V17.4933C86.6697 16.4392 88.2905 15.8844 90.1907 15.8844C93.7117 15.8844 95.556 17.9372 95.556 20.9331V33.4715H95.6119Z" fill="#163B4C"/>
<path d="M105.896 27.2577C105.896 30.0872 106.958 30.753 109.137 30.753C109.696 30.753 110.311 30.642 110.311 30.642C110.311 30.642 110.646 31.3633 110.646 32.3064C110.646 33.1941 110.423 33.8044 110.423 33.8044C109.585 34.0263 108.69 34.0818 107.908 34.0818C103.493 34.0818 101.593 31.8626 101.593 27.4242V19.3241H98.9657C98.9657 19.3241 98.7422 18.7138 98.7422 17.7707C98.7422 16.7166 98.9657 16.2172 98.9657 16.2172H101.593V13.3323C102.71 12.6665 104.331 12.3891 105.896 12.5001V16.2172H109.92C109.92 16.2172 110.143 16.772 110.143 17.7707C110.143 18.6584 109.92 19.3241 109.92 19.3241H105.896V27.2577Z" fill="#163B4C"/>
<path d="M120.035 33.4716C120.035 33.4716 119.309 33.749 117.855 33.749C116.346 33.749 115.676 33.4716 115.676 33.4716V9.00494C115.676 9.00494 116.346 8.72754 117.855 8.72754C119.253 8.72754 120.035 9.00494 120.035 9.00494V33.4716Z" fill="#163B4C"/>
<path d="M143.509 15.8844C146.862 15.8844 148.706 17.9372 148.706 20.9331V33.4715C148.706 33.4715 147.924 33.7489 146.527 33.7489C145.018 33.7489 144.347 33.4715 144.347 33.4715V21.6543C144.347 20.2118 143.676 19.2687 141.776 19.2687C140.658 19.2687 139.708 19.7125 138.926 20.4892V33.527C138.926 33.527 138.199 33.8044 136.746 33.8044C135.237 33.8044 134.567 33.527 134.567 33.527V21.6543C134.567 20.2118 133.896 19.2687 131.996 19.2687C130.934 19.2687 129.928 19.7125 129.145 20.4892V33.527C129.145 33.527 128.419 33.8044 126.966 33.8044C125.457 33.8044 124.786 33.527 124.786 33.527V16.4947C124.786 16.4947 125.457 16.2173 126.966 16.2173C128.363 16.2173 129.145 16.4947 129.145 16.4947V17.4378C130.263 16.3837 131.94 15.8844 133.617 15.8844C135.517 15.8844 136.97 16.4392 138.032 17.8262C139.541 16.4947 141.273 15.8844 143.509 15.8844Z" fill="#163B4C"/>
<path d="M159.94 15.8844C164.97 15.8844 166.814 17.8817 166.814 22.0981V33.527C166.814 33.527 166.311 33.8044 165.138 33.8044C164.076 33.8044 163.405 33.527 163.405 33.527L162.734 31.7517C161.952 33.3051 160.219 34.1373 157.704 34.1373C154.463 34.1373 152.395 32.251 152.395 28.3674C152.395 24.5947 154.854 23.0413 159.102 23.0413C160.275 23.0413 161.505 23.0968 162.511 23.2077V22.4865C162.511 20.8221 161.896 19.4351 159.437 19.4351C157.146 19.4351 155.022 20.2118 155.022 20.2118C155.022 20.2118 154.463 19.879 154.072 18.9913C153.68 18.1036 153.792 17.2159 153.792 17.2159C153.792 17.2159 156.307 15.8844 159.94 15.8844ZM159.661 25.8153C157.928 25.8153 156.866 26.5365 156.866 28.3119C156.866 30.1982 157.816 30.864 159.325 30.864C161.728 30.864 162.455 28.7003 162.455 26.9249V25.9263C161.617 25.8708 160.611 25.8153 159.661 25.8153Z" fill="#163B4C"/>
<path d="M185.928 33.4715C185.928 33.4715 185.146 33.7489 183.749 33.7489C182.24 33.7489 181.569 33.4715 181.569 33.4715V21.6543C181.569 20.2118 180.787 19.2687 178.83 19.2687C177.713 19.2687 176.651 19.7125 175.812 20.4892V33.4715C175.812 33.4715 175.086 33.7489 173.633 33.7489C172.124 33.7489 171.453 33.4715 171.453 33.4715V16.4947C171.453 16.4947 172.124 16.2173 173.633 16.2173C175.03 16.2173 175.812 16.4947 175.812 16.4947V17.4933C176.986 16.4392 178.607 15.8844 180.507 15.8844C184.028 15.8844 185.872 17.9372 185.872 20.9331V33.4715H185.928Z" fill="#163B4C"/>
<path d="M195.541 29.366C195.541 28.7557 195.038 28.3119 194.312 28.3119H192.915V31.6407C192.915 31.6407 193.082 31.6962 193.306 31.6962C193.529 31.6962 193.697 31.6407 193.697 31.6407V30.4201H193.921L194.759 31.6407C194.759 31.6407 194.927 31.6962 195.15 31.6962C195.43 31.6962 195.653 31.5852 195.653 31.5852L194.759 30.3092C195.262 30.1982 195.541 29.8098 195.541 29.366ZM194.256 29.7544H193.753V28.9222H194.256C194.535 28.9222 194.703 29.0331 194.703 29.3105C194.703 29.6434 194.535 29.7544 194.256 29.7544Z" fill="#163B4C"/>
<path d="M194.088 26.2036C191.908 26.2036 190.176 27.9235 190.176 30.0872C190.176 32.2509 191.908 33.9708 194.088 33.9708C196.268 33.9708 198 32.2509 198 30.0872C198 27.9235 196.268 26.2036 194.088 26.2036ZM194.088 32.8057C192.579 32.8057 191.349 31.5852 191.349 30.0872C191.349 28.5892 192.579 27.3687 194.088 27.3687C195.597 27.3687 196.827 28.5892 196.827 30.0872C196.827 31.5852 195.597 32.8057 194.088 32.8057Z" fill="#163B4C"/>
</svg>
