<svg width="306" height="168" viewBox="0 0 306 168" fill="none" xmlns="http://www.w3.org/2000/svg">
<path d="M101.035 104.409C101.035 104.409 88.2626 107.149 79.9111 96.493C71.5595 85.8374 81.6826 76.9578 68.995 70.6998C56.3242 64.4586 42.6918 71.3256 27.4397 71.0042C12.1875 70.6828 3.4479 58.0315 0.680922 59.8243C-2.10293 61.6341 1.91257 89.6261 46.1674 86.903C46.1674 86.903 26.731 89.643 17.5865 88.662C8.44197 87.6979 11.7488 99.1484 26.073 102.142C40.3972 105.136 53.4898 98.9962 53.4898 98.9962C53.4898 98.9962 43.198 105.626 34.9476 107.047C26.6973 108.468 46.083 124.451 63.8491 107.994C63.8491 107.994 61.1159 112.087 58.1464 116.011C55.177 119.935 71.0196 123.014 77.9708 112.087C77.9708 112.087 75.1195 117.652 75.8787 120.426C76.6379 123.2 87.1997 125.043 91.7551 115.487C91.7551 115.487 91.3839 121.305 94.6908 121.914C97.9808 122.506 102.401 123.047 104.308 115.808C106.214 108.603 101.035 104.409 101.035 104.409Z" fill="white"/>
<path d="M226.679 79.5119C226.679 79.5119 239.535 77.1778 243.213 64.1374C246.891 51.097 234.17 46.7333 243.517 36.1285C252.864 25.5067 268.082 26.6738 282.069 20.568C296.056 14.4622 299.329 -0.590951 302.568 0.0179388C305.808 0.626828 312.725 28.0438 270.765 42.4203C270.765 42.4203 289.78 37.5323 297.861 33.1517C305.943 28.7711 307.242 40.6106 295.128 48.8475C283.014 57.0844 268.572 56.4079 268.572 56.4079C268.572 56.4079 280.601 58.6067 288.784 56.78C296.95 54.9533 285.089 77.127 262.413 68.6872C262.413 68.6872 266.496 71.4272 270.731 73.9304C274.966 76.4336 261.486 85.3132 250.907 77.8543C250.907 77.8543 255.665 81.9136 256.019 84.772C256.373 87.6304 247.313 93.3641 239.451 86.2773C239.451 86.2773 241.999 91.5205 239.181 93.3303C236.363 95.14 232.483 97.3219 227.978 91.3514C223.456 85.364 226.679 79.5119 226.679 79.5119Z" fill="white"/>
<path d="M225.993 54.4697L92.1758 80.9985L109.186 167.228L243.003 140.7L225.993 54.4697Z" fill="#1BDCB9"/>
<path d="M170.041 123.335L96.7661 84.3495L171.93 132.908L223.001 59.3174L170.041 123.335Z" fill="#127C77"/>
<path d="M139.789 110.346L112.524 163.048L143.029 114.05L139.789 110.346Z" fill="#127C77"/>
<path d="M193.087 99.7915L238.304 138.118L191.501 104.443L193.087 99.7915Z" fill="#127C77"/>
</svg>
