<svg width="25" height="15" viewBox="0 0 25 15" fill="none" xmlns="http://www.w3.org/2000/svg">
<g clip-path="url(#clip0_401_2290)">
<path d="M15.5385 1.61377H8.91553V13.4754H15.5385V1.61377Z" fill="#FF5A00"/>
<path d="M9.35643 7.54476C9.35643 5.13483 10.4929 2.99593 12.2368 1.61394C10.9534 0.607976 9.33439 0 7.56842 0C3.38497 0 0 3.37439 0 7.54476C0 11.7151 3.38497 15.0895 7.56842 15.0895C9.33439 15.0895 10.9534 14.4816 12.2368 13.4756C10.4905 12.1131 9.35643 9.95469 9.35643 7.54476Z" fill="#EB001B"/>
<path d="M24.4737 7.54476C24.4737 11.7151 21.0887 15.0895 16.9052 15.0895C15.1393 15.0895 13.5203 14.4816 12.2368 13.4756C14.0028 12.0912 15.1172 9.95469 15.1172 7.54476C15.1172 5.13483 13.9807 2.99593 12.2368 1.61394C13.5178 0.607976 15.1368 0 16.9028 0C21.0887 0 24.4737 3.39636 24.4737 7.54476Z" fill="#F79E1B"/>
</g>
<defs>
<clipPath id="clip0_401_2290">
<rect width="24.4737" height="15" fill="white"/>
</clipPath>
</defs>
</svg>
