<svg width="51" height="15" viewBox="0 0 51 15" fill="none" xmlns="http://www.w3.org/2000/svg">
<path fill-rule="evenodd" clip-rule="evenodd" d="M8.73337 1.62705C9.12646 1.6247 10.2947 1.51948 10.7896 3.18958C11.1229 4.31458 11.6539 6.15738 12.3825 8.71799H12.6792C13.4606 6.01842 13.9974 4.17562 14.2896 3.18958C14.7896 1.50208 16.0396 1.62708 16.5396 1.62708L20.3972 1.62709V13.6271H16.4654V6.55527H16.2017L14.0099 13.6271H11.0518L8.86 6.55003H8.59634V13.6271H4.66455V1.62709L8.73337 1.62705ZM26.0431 1.62709V8.70413H26.3568L29.0229 2.88473C29.5404 1.72665 30.6435 1.62709 30.6435 1.62709H34.4483V13.6271H30.4344V6.55003H30.1207L27.5069 12.3694C26.9893 13.5223 25.834 13.6271 25.834 13.6271H22.0292V1.62709H26.0431ZM48.3221 7.32956C47.7622 8.91618 46.0039 10.0525 44.0572 10.0525H39.8479V13.6271H36.0309V7.32956H48.3221Z" fill="#0F754E"/>
<path fill-rule="evenodd" clip-rule="evenodd" d="M44.2412 1.62695H35.8306C36.0307 4.29856 38.3315 6.58563 40.7132 6.58563H48.5872C49.0416 4.36521 47.4773 1.62695 44.2412 1.62695Z" fill="url(#paint0_linear_401_2297)"/>
<defs>
<linearGradient id="paint0_linear_401_2297" x1="48.6644" y1="4.74617" x2="35.8306" y2="4.74617" gradientUnits="userSpaceOnUse">
<stop stop-color="#1F5CD7"/>
<stop offset="1" stop-color="#02AEFF"/>
</linearGradient>
</defs>
</svg>
