<svg width="28" height="28" viewBox="0 0 28 28" fill="none" xmlns="http://www.w3.org/2000/svg">
<circle cx="14" cy="14" r="14" fill="#B5C9CE"/>
<g clip-path="url(#clip0_401_2309)">
<path d="M13.997 8.42832C14.9049 8.42832 15.6431 9.1666 15.6431 10.0744C15.6431 10.9795 14.9049 11.7178 13.997 11.7178C13.0892 11.7178 12.351 10.9795 12.351 10.0744C12.351 9.1666 13.0892 8.42832 13.997 8.42832ZM13.997 14.0475C16.19 14.0475 17.9728 12.2646 17.9728 10.0744C17.9728 7.88145 16.19 6.09863 13.997 6.09863C11.8041 6.09863 10.024 7.88145 10.024 10.0744C10.024 12.2646 11.8041 14.0475 13.997 14.0475ZM15.6049 17.2904C16.4142 17.1045 17.1935 16.7846 17.9127 16.3334C18.4568 15.9916 18.6209 15.2725 18.2791 14.7283C17.9345 14.1814 17.2181 14.0174 16.6713 14.3619C15.0443 15.3846 12.9498 15.3846 11.3201 14.3619C10.776 14.0174 10.0568 14.1814 9.71501 14.7283C9.37322 15.2725 9.53728 15.9916 10.0814 16.3334C10.8006 16.7846 11.5799 17.1045 12.3892 17.2904L10.1662 19.5107C9.71228 19.9646 9.71228 20.7029 10.1662 21.1568C10.3959 21.3838 10.6912 21.4986 10.9892 21.4986C11.2873 21.4986 11.5853 21.3838 11.815 21.1568L13.997 18.9748L16.1818 21.1568C16.6357 21.6135 17.3713 21.6135 17.8279 21.1568C18.2818 20.7029 18.2818 19.9646 17.8279 19.5107L15.6049 17.2904Z" fill="#F6F8FC"/>
</g>
<defs>
<clipPath id="clip0_401_2309">
<rect width="15.4" height="15.4" fill="white" transform="translate(6.29688 6.09912)"/>
</clipPath>
</defs>
</svg>
