<svg width="70" height="70" viewBox="0 0 70 70" fill="none" xmlns="http://www.w3.org/2000/svg">
<path d="M34.6838 43.9745C34.1159 47.4074 33.5584 50.83 33.0008 54.2629C32.7323 55.8917 32.5362 57.5308 32.2058 59.1391C31.7618 61.3349 30.9564 63.4585 28.5197 64.0049C26.0416 64.5719 24.1005 63.2317 22.624 61.3761C20.1356 58.2628 18.5042 54.6856 17.6885 50.83C17.069 47.9228 16.7696 44.9332 16.5424 41.9642C16.4288 40.4694 16.0778 39.2839 15.2001 38.0159C10.8635 31.7583 9.71743 24.7172 10.9874 17.3669C12.0922 10.934 17.1516 6.68671 23.9456 6.02693C26.1862 5.81044 28.53 5.70735 30.7293 6.08879C33.7339 6.59393 36.6043 6.47022 39.6193 6.14033C42.6342 5.81044 45.8247 5.96508 48.7984 6.58362C55.262 7.9341 59.1133 12.5422 59.7018 19.1297C60.3317 26.212 59.1443 32.8613 54.756 38.7375C54.1469 39.5519 53.992 40.8096 53.93 41.8817C53.548 48.4383 52.4742 54.7886 48.5196 60.2834C47.7555 61.3452 46.8263 62.407 45.7524 63.1286C42.7272 65.1595 39.6709 64.1492 38.752 60.6339C37.864 57.2628 37.4613 53.768 36.8211 50.3351C36.4288 48.2218 36.0054 46.1187 35.5924 44.0157C35.2827 44.0054 34.9832 43.9951 34.6838 43.9745ZM55.5408 22.7482C55.4995 21.8719 55.4995 20.841 55.3962 19.8204C54.9212 14.8102 52.2883 11.4701 47.3529 10.5938C44.4721 10.0784 41.4262 10.5217 38.4628 10.5217C36.2223 10.5217 33.9817 10.5423 31.7411 10.4907C29.1701 10.4392 26.5785 10.0371 24.0488 10.2949C19.8052 10.7382 16.5631 12.9855 15.5099 17.2432C13.7856 24.1708 14.8078 30.748 19.3405 36.4592C20.3214 37.686 20.7138 38.8509 20.7551 40.3663C20.8067 42.8302 20.7861 45.3456 21.3127 47.7373C22.1696 51.6444 23.2125 55.5618 25.8867 58.7473C26.2275 59.1494 26.8573 59.3143 27.3529 59.5926C27.5904 59.1494 27.9621 58.737 28.0344 58.2731C28.5197 55.2216 28.8914 52.1598 29.387 49.1084C29.8413 46.2631 30.2233 43.3765 32.0819 40.9952C33.8991 38.6756 36.5424 38.6035 38.3493 40.9024C39.0307 41.7683 39.5676 42.8405 39.8568 43.9126C40.3833 45.892 40.7034 47.9331 41.0338 49.9537C41.4778 52.5928 41.8185 55.2422 42.2729 57.871C42.3658 58.4277 42.7994 58.9329 43.0679 59.4586C43.6358 59.0875 44.245 58.7679 44.7406 58.3246C45.1123 57.9844 45.3498 57.4999 45.5976 57.0463C48.468 51.7887 49.8929 46.2012 49.5625 40.1704C49.5108 39.1498 49.7999 37.82 50.4504 37.1087C54.1675 33.0572 55.3136 28.1707 55.5408 22.7482Z" fill="white"/>
<path d="M48.641 18.2488C44.2471 20.1506 43.1253 23.7832 42.045 27.4863C41.6607 28.8045 41.0167 30.1328 40.1753 31.2296C38.0459 34.027 35.875 34.6106 32.6237 33.1515C31.2838 32.5478 30.7332 32.8597 30.2658 33.9565C29.8295 34.9729 29.414 35.9993 29.0401 37.0357C28.7596 37.8005 28.635 38.696 27.4093 38.2432C26.1524 37.7803 25.8927 36.9955 26.5679 35.8886C27.2015 34.8521 27.804 33.7955 28.5103 32.8094C29.0089 32.105 29.0816 31.622 28.261 31.0887C25.9031 29.5391 26.2771 27.275 26.8588 25.1115C28.3649 19.4966 34.3065 15.5118 40.57 15.9646C43.2188 16.1659 45.826 16.6992 48.641 18.2488ZM40.2792 18.9834C35.9165 19.4161 32.094 23.2801 31.4811 27.4964C34.2026 24.8197 37.2045 21.8613 40.2065 18.9129C40.2792 18.8727 40.3519 18.8425 40.4142 18.7821C40.4454 18.7519 40.4246 18.6916 40.4246 18.6413C40.3727 18.7519 40.3311 18.8626 40.2792 18.9834Z" fill="white"/>
</svg>
