<svg width="70" height="70" viewBox="0 0 70 70" fill="none" xmlns="http://www.w3.org/2000/svg">
<path d="M42.9218 33.1176C42.6059 32.4405 42.076 31.7738 42.0251 31.0762C41.9028 29.4554 42.0251 27.8038 42.0353 26.1727C42.0454 24.7263 41.8926 23.4953 40.6087 22.3874C39.8241 21.7206 39.4165 20.2537 39.3757 19.1253C39.2331 15.3502 39.284 11.5546 39.335 7.76932C39.3656 5.10216 40.7717 3.56341 43.0746 3.50186C45.3673 3.44031 46.9773 4.90725 47.069 7.58467C47.2116 11.4623 47.232 15.3605 47.0384 19.2381C46.9773 20.4281 46.2844 21.8437 45.4182 22.6746C44.5012 23.5569 44.0528 24.3673 44.1751 25.5572C44.44 28.2449 44.0223 30.7992 42.8199 33.2099C42.8301 33.2099 42.9218 33.1176 42.9218 33.1176Z" fill="white"/>
<path d="M26.4146 36.8926C26.7203 37.5697 27.2298 38.2467 27.2808 38.9443C27.3928 40.5753 27.3215 42.2167 27.2604 43.8478C27.1992 45.3352 27.5151 46.4944 28.7481 47.6023C29.5225 48.2999 29.9199 49.736 29.9606 50.8644C30.1033 54.6395 30.0524 58.4351 30.0014 62.2204C29.9708 64.9081 28.5749 66.4263 26.272 66.4981C23.9691 66.5596 22.3693 65.1132 22.2674 62.4255C22.1248 58.4453 22.135 54.4446 22.2878 50.4644C22.3286 49.4488 22.889 48.146 23.6634 47.5407C24.9677 46.5047 25.3753 45.3352 25.1613 43.8478C24.7945 41.3242 25.5689 39.0571 26.5063 36.8003C26.5063 36.8003 26.4146 36.8926 26.4146 36.8926Z" fill="white"/>
<path d="M25.9256 15.7914C25.4466 16.0068 24.6824 16.6223 24.8251 15.4733C24.9474 14.5296 25.5384 13.6371 25.9154 12.7241L25.8339 12.7959C26.1192 13.1755 26.6694 13.5858 26.6185 13.9141C26.5268 14.5911 26.109 15.2169 25.8237 15.8734C25.844 15.8734 25.9256 15.7914 25.9256 15.7914Z" fill="white"/>
<path d="M25.8439 15.8733C26.119 16.2529 26.6693 16.6735 26.6285 17.0017C26.5368 17.6788 26.119 18.3045 25.8439 18.9508L25.9356 18.8688C25.4669 19.0534 24.6925 19.7202 24.8453 18.5507C24.9676 17.5967 25.5586 16.7042 25.9458 15.7913C25.9254 15.7913 25.8439 15.8733 25.8439 15.8733Z" fill="white"/>
<path d="M25.8339 18.9507C26.109 19.3303 26.6592 19.7509 26.6185 20.0791C26.5268 20.7562 26.109 21.3922 25.8237 22.0487L25.9052 21.9667C25.4263 22.1513 24.6519 22.7566 24.8251 21.5974C24.9677 20.6536 25.5384 19.7714 25.9154 18.8584L25.8339 18.9507Z" fill="white"/>
<path d="M25.8234 22.059C26.1291 22.3873 26.7405 22.7771 26.6793 23.0336C26.5265 23.7722 26.1087 24.4492 25.803 25.157L25.8845 25.075C25.3343 25.2391 24.5803 25.6392 24.886 24.4902C25.1203 23.6285 25.5585 22.8181 25.9049 21.9872C25.9049 21.977 25.8234 22.059 25.8234 22.059Z" fill="white"/>
<path d="M25.7423 28.2757C26.4454 28.3475 27.1994 28.3475 26.6288 29.4349C26.3231 30.0298 26.0887 30.6659 25.8238 31.2814L25.9155 31.1993C25.3856 31.3942 24.6418 31.8045 24.8863 30.6761C25.0698 29.8247 25.5079 29.0143 25.834 28.1936L25.7423 28.2757Z" fill="white"/>
<path d="M25.8234 31.271C26.1291 31.6096 26.7201 31.9994 26.6692 32.2661C26.5265 32.9944 26.1189 33.6715 25.8132 34.369L25.9049 34.287C25.3445 34.4819 24.6007 34.8614 24.8962 33.7125C25.1203 32.8406 25.5687 32.0301 25.9151 31.189C25.9151 31.189 25.8234 31.271 25.8234 31.271Z" fill="white"/>
<path d="M25.8238 34.3692C26.1295 34.6769 26.6492 34.9539 26.7001 35.3027C26.7816 35.8053 26.5269 36.3593 26.4148 36.8927L26.5065 36.7901C26.0072 36.9748 25.4977 37.1697 24.6724 37.4774C25.1513 36.2464 25.5283 35.2616 25.9053 34.2871C25.9053 34.2871 25.8238 34.3692 25.8238 34.3692Z" fill="white"/>
<path d="M43.5742 51.0184C42.8915 50.8748 42.1884 50.7824 42.7386 49.7669C43.0545 49.1821 43.2685 48.5461 43.5334 47.9306L43.4519 48.0024C43.9512 47.7562 44.6746 47.2946 44.5116 48.382C44.369 49.3155 43.8493 50.1977 43.5028 51.1004C43.4926 51.1107 43.5742 51.0184 43.5742 51.0184Z" fill="white"/>
<path d="M43.5539 54.1164C43.238 53.7779 42.6164 53.3778 42.6775 53.1214C42.8304 52.393 43.2584 51.716 43.5742 51.0184L43.4927 51.1107C43.992 50.8235 44.6951 50.3824 44.5015 51.4903C44.3385 52.4238 43.829 53.306 43.4621 54.2088L43.5539 54.1164Z" fill="white"/>
<path d="M43.4618 54.2085C43.9204 53.9828 44.654 53.3776 44.5114 54.5265C44.3891 55.46 43.849 56.3422 43.5026 57.245L43.5739 57.1526C42.881 57.0398 42.1474 56.968 42.6976 55.9319C43.0135 55.3369 43.2682 54.7112 43.5535 54.1059L43.4618 54.2085Z" fill="white"/>
<path d="M43.5638 60.2715C42.9626 60.056 42.1067 60.0253 42.6671 58.9789C42.983 58.3839 43.2785 57.7684 43.5842 57.1734L43.5129 57.2658C44.0122 56.958 44.6949 56.4964 44.5013 57.6351C44.3382 58.5788 43.8491 59.461 43.4925 60.374L43.5638 60.2715Z" fill="white"/>
<path d="M43.5434 63.3693C42.9626 63.1334 42.1067 63.1026 42.6773 62.0665C43.0034 61.4818 43.2683 60.8663 43.5638 60.2611L43.4925 60.3637C43.9918 59.9739 44.6541 59.5533 44.4911 60.6919C44.3484 61.646 43.8287 62.5487 43.4721 63.4719L43.5434 63.3693Z" fill="white"/>
<path d="M43.462 63.4721C43.9308 63.1335 44.6644 62.6104 44.481 63.7388C44.3282 64.621 43.5639 65.4006 43.0748 66.2213C42.871 66.1392 42.6774 66.0572 42.4736 65.9854C42.8303 65.1134 43.1869 64.2517 43.5435 63.3797L43.462 63.4721Z" fill="white"/>
<path d="M25.8033 25.1469C26.109 25.4752 26.7306 25.8753 26.6796 26.1215C26.5064 26.8703 26.0785 27.5576 25.7524 28.2757L25.8441 28.1936C25.5282 27.9885 24.9168 27.7012 24.9474 27.6089C25.2021 26.7472 25.569 25.9163 25.9052 25.0751C25.8848 25.0648 25.8033 25.1469 25.8033 25.1469Z" fill="white"/>
<path d="M42.8301 33.21C43.3294 33.0254 43.8389 32.8407 44.6235 32.5432C44.2057 33.7127 43.8491 34.6769 43.5027 35.6515L43.5842 35.5694C43.2479 35.2924 42.6773 35.0462 42.6263 34.718C42.5346 34.2153 42.7996 33.6511 42.9218 33.1177C42.9218 33.1177 42.8301 33.21 42.8301 33.21Z" fill="white"/>
<path d="M43.6146 41.7142C43.2783 41.4167 42.6262 41.0474 42.6771 40.832C42.8402 40.0934 43.2376 39.3958 43.5433 38.688L43.4516 38.7701C43.7776 38.9444 44.4094 39.2009 44.389 39.2727C44.1546 40.1242 43.8286 40.9551 43.5229 41.786C43.5331 41.7963 43.6146 41.7142 43.6146 41.7142Z" fill="white"/>
<path d="M43.6247 44.7814C43.2885 44.4839 42.6261 44.094 42.6771 43.8889C42.8605 43.1298 43.2783 42.4322 43.6145 41.7141L43.533 41.7962C43.8387 42.0013 44.4297 42.2783 44.3992 42.4014C44.1852 43.2426 43.8489 44.053 43.5432 44.8737L43.6247 44.7814Z" fill="white"/>
<path d="M43.5232 47.9306C43.2277 47.592 42.6367 47.1817 42.6877 46.915C42.8507 46.1661 43.2889 45.4891 43.6149 44.7812L43.5334 44.8633C43.8289 45.0787 44.4097 45.3762 44.369 45.4993C44.1244 46.3508 43.7576 47.1714 43.4315 48.0126C43.4417 48.0126 43.5232 47.9306 43.5232 47.9306Z" fill="white"/>
<path d="M43.5436 38.6981C43.2379 38.3699 42.6367 37.9698 42.6876 37.7236C42.8506 36.9747 43.2684 36.2874 43.5843 35.5693L43.5028 35.6514C43.8187 35.8566 44.4199 36.1438 44.3893 36.2464C44.1447 37.1081 43.7779 37.939 43.4518 38.7802C43.4518 38.7802 43.5436 38.6981 43.5436 38.6981Z" fill="white"/>
</svg>
