<svg width="70" height="70" viewBox="0 0 70 70" fill="none" xmlns="http://www.w3.org/2000/svg">
<path d="M32.6184 45.752C31.2668 48.1765 31.2764 50.5914 30.8613 52.9C30.4172 55.3631 30.1275 57.8649 29.5 60.2798C28.3897 64.53 25.1458 65.4187 21.9501 62.3373C20.8591 61.2844 19.9226 59.9997 19.1889 58.6667C16.6787 54.0881 15.6263 49.1038 15.4719 43.9263C15.4236 42.3036 14.9409 41.0382 14.0623 39.6762C9.9977 33.3396 8.84881 26.4717 11.0114 19.2078C12.5176 14.1269 16.2539 11.3836 21.3032 10.6881C24.132 10.3018 27.067 10.6688 29.9441 10.6785C31.653 10.6881 33.3618 10.7268 35.061 10.6398C36.8858 10.5432 38.7105 10.2341 40.5352 10.1762C41.7806 10.1375 42.8716 10.6592 42.9682 12.1081C43.0647 13.6149 42.022 14.0206 40.7283 14.1655C38.334 14.436 35.9589 14.9866 33.5646 15.0156C31.3826 15.0639 29.191 14.5229 26.9898 14.3394C25.5609 14.2235 24.0934 14.1462 22.6742 14.3008C17.8276 14.861 14.7091 17.7782 14.0913 22.6369C13.4541 27.6405 13.9078 32.6827 16.9104 36.8073C18.8124 39.425 19.4496 41.9172 19.4496 44.9889C19.4496 48.5822 20.5116 52.0403 21.9115 55.3438C22.6549 57.0922 23.4755 58.8695 25.7347 60.0673C26.1402 58.1258 26.536 56.3967 26.845 54.6483C27.3277 51.8954 27.656 49.1135 28.2545 46.3895C28.5345 45.1048 29.0945 43.7911 29.8476 42.7093C31.2861 40.6228 33.9121 40.5166 35.4858 42.5064C36.2872 43.5303 36.9244 44.8343 37.1947 46.0997C37.9091 49.4902 38.3726 52.9386 38.9615 56.3581C39.1642 57.5752 39.4249 58.7826 39.6856 60.1639C41.5296 59.3428 42.3599 57.8939 43.0261 56.445C45.0729 52.021 46.5017 47.4327 46.0287 42.4678C45.8935 41.0382 46.1831 39.879 47.1776 38.7585C50.8656 34.5953 51.6959 29.5144 51.6187 24.1921C51.609 23.6222 51.387 23.0426 51.4159 22.4727C51.4739 21.2556 52.1111 20.4538 53.3855 20.4152C54.5633 20.3669 55.0364 21.1107 55.2488 22.2022C56.2143 27.1382 55.1909 31.8134 53.2503 36.305C52.3428 38.3915 50.6629 40.1881 49.9967 42.3229C49.3595 44.3803 49.765 46.7372 49.3885 48.9106C48.7802 52.4267 47.9403 55.9137 45.9804 58.9854C45.208 60.2025 44.3777 61.4293 43.364 62.4339C40.3518 65.3993 36.7216 64.4334 35.6693 60.3378C35.0514 57.9229 34.8197 55.4018 34.3949 52.9386C33.9894 50.601 33.999 48.1862 32.6184 45.752Z" fill="white"/>
<path d="M35.5451 29.4447C38.6828 25.2428 41.4827 21.0796 44.717 17.2737C47.5168 13.9799 50.78 11.0917 53.8599 8.0393C54.2654 7.64326 54.7577 7.16029 55.2694 7.07335C55.9356 6.95744 56.988 6.93812 57.2969 7.3245C57.7314 7.87509 57.7989 8.87001 57.7024 9.63311C57.6445 10.0968 57.0169 10.5314 56.5728 10.8888C49.3222 16.7135 43.8674 24.045 38.9725 31.8499C38.4608 32.6709 38.007 33.5306 37.4181 34.2937C36.3175 35.7137 35.1782 35.8006 34.0872 34.4676C31.2681 31.0481 28.5165 27.5707 25.736 24.1223C25.0312 23.253 24.9154 22.3836 25.6877 21.5239C26.4408 20.6835 27.7635 20.6739 28.7483 21.7074C30.4764 23.5234 32.0887 25.4457 33.7397 27.3292C34.3383 28.0151 34.9369 28.7395 35.5451 29.4447Z" fill="white"/>
</svg>
