<svg width="70" height="70" viewBox="0 0 70 70" fill="none" xmlns="http://www.w3.org/2000/svg">
<path d="M26.2764 44.432C25.8088 47.2171 25.3412 49.9918 24.8633 52.7769C24.4669 55.0994 24.1619 57.4426 23.6536 59.7343C23.2164 61.6664 22.4743 63.6087 20.2479 64.0198C18.0723 64.4309 16.1306 63.4854 14.8903 61.7794C13.4061 59.7343 12.054 57.5042 11.0882 55.1611C9.35992 50.9784 8.23148 46.5902 8.4958 41.9861C8.57713 40.5679 8.06882 39.5505 7.30636 38.3584C2.70108 31.1337 0.800002 23.3644 3.73803 14.9579C5.26295 10.621 8.4348 7.836 12.8571 6.65416C16.2424 5.74979 19.6989 5.5237 23.1148 6.3253C25.6461 6.92136 28.0759 6.79804 30.6072 6.28419C34.0332 5.58536 37.4389 5.80118 40.8446 6.77748C47.5847 8.71982 50.5431 14.1871 51.0209 19.9319C51.5902 26.7866 50.0348 33.148 46.0192 38.8619C45.338 39.8382 45.155 41.3181 45.1042 42.5719C44.8399 49.1594 43.5081 55.4077 39.462 60.7723C38.6893 61.8 37.6829 62.7968 36.5748 63.4134C33.7587 64.9961 31.2985 64.0506 30.3836 60.8956C29.5601 58.0592 29.1535 55.0892 28.635 52.1705C28.1673 49.5807 27.7912 46.9807 27.3846 44.3806C27.0186 44.4012 26.6424 44.4217 26.2764 44.432ZM33.9316 59.6213C34.2772 59.7138 34.633 59.8063 34.9787 59.8885C35.9445 58.388 37.0933 56.9596 37.8455 55.3564C40.0618 50.6598 41.1292 45.7064 40.9056 40.4549C40.8547 39.3347 41.1191 37.8754 41.8104 37.0943C45.8158 32.5828 46.9646 27.1668 46.8426 21.3912C46.7206 14.9784 43.315 10.991 37.2966 10.2511C35.121 9.98387 32.8133 10.1483 30.6377 10.5285C27.9945 10.991 25.4631 11.0424 22.8301 10.5183C20.8579 10.1277 18.7738 9.98387 16.7812 10.1894C12.6131 10.6108 8.98377 12.2756 7.62151 16.6433C5.38495 23.7857 6.68622 30.4554 11.1695 36.3647C12.2471 37.7829 12.7961 39.0058 12.6741 40.7632C12.2776 46.2408 13.8432 51.3175 16.0798 56.2093C16.7406 57.6481 17.5132 59.0869 19.4956 59.8371C19.9327 57.2062 20.2987 54.7911 20.7359 52.3863C21.295 49.2622 21.8135 46.1277 22.5455 43.0344C23.0233 41.0098 24.355 39.4375 26.4696 39.2114C28.7062 38.975 30.0278 40.6398 30.7699 42.5C31.4815 44.2779 31.9288 46.2099 32.2542 48.1111C32.8946 51.9342 33.3826 55.7777 33.9316 59.6213Z" fill="white"/>
<path d="M56.5007 45.881C53.5525 45.8912 51.7023 43.4351 52.5562 40.4034C53.1357 38.348 54.0303 36.3748 54.7725 34.3606C57.8731 25.9232 60.9738 17.4756 64.0745 9.03831C64.3185 8.37031 64.4303 7.57899 64.8675 7.05487C65.3046 6.52047 66.0569 6.26355 66.6771 5.8833C66.9312 6.57185 67.5107 7.33234 67.3988 7.94896C66.5144 12.6763 65.4978 17.3729 64.5117 22.0797C63.1087 28.8008 61.7261 35.5116 60.2825 42.2121C59.7437 44.73 58.4628 45.881 56.5007 45.881Z" fill="white"/>
<path d="M47.4425 62.4678C48.2354 60.731 48.3066 59.0353 47.7678 57.1444C47.1578 54.976 47.1883 52.6842 48.2253 50.5672C49.4757 48.0288 52.3324 46.8264 54.8333 47.741C57.4765 48.7071 58.8998 51.2968 58.3203 54.0922C57.3647 58.6859 52.2307 62.5809 47.3713 62.4062L47.4425 62.4678Z" fill="white"/>
</svg>
