<svg width="70" height="70" viewBox="0 0 70 70" fill="none" xmlns="http://www.w3.org/2000/svg">
<path d="M35.0355 46.0906C34.6279 48.5238 34.2203 50.9672 33.8025 53.4004C33.3541 55.9857 33.0586 58.6116 32.3758 61.1463C31.153 65.739 27.5559 66.7022 24.2033 63.2449C22.6136 61.6025 21.2889 59.5545 20.3616 57.466C18.456 53.1875 17.3453 48.6455 17.4268 43.9209C17.4574 42.4305 17.0498 41.2849 16.2346 40.0074C11.9954 33.387 10.5383 26.1886 12.5763 18.5138C14.1558 12.5625 19.2509 8.84162 25.4465 8.82135C25.8541 8.82135 26.3636 8.69969 26.6388 8.89232C27.24 9.31813 28.0042 9.82506 28.1978 10.4536C28.473 11.356 28.0959 12.2684 26.9445 12.5219C26.0477 12.7145 25.151 12.9072 24.2542 13.0795C19.8215 13.9109 16.8664 16.6179 16.153 21.0383C15.1136 27.6182 16.3976 33.6911 20.6367 39.0443C21.2583 39.8249 21.6863 41.0517 21.615 42.0351C21.2991 46.8104 22.5627 51.2713 24.0708 55.6816C24.7841 57.7701 25.8235 59.7573 28.2896 61.0651C28.7481 58.1453 29.1353 55.4687 29.5939 52.8023C30.0015 50.4096 30.348 47.9966 30.9798 45.6546C31.7542 42.755 33.7006 40.9706 35.5959 41.0213C37.6034 41.072 39.2644 42.7043 39.9981 45.8067C40.7216 48.8482 41.1394 51.9608 41.7202 55.0429C42.0871 56.9895 42.4947 58.9158 42.9227 61.0651C45.2053 59.8789 45.9695 58.0641 46.7542 56.3406C48.7311 51.9405 49.8112 47.3173 49.6278 42.4812C49.5667 40.7475 49.8826 39.389 51.2379 38.1521C52.0837 37.3714 52.5218 36.1447 53.0823 35.0801C53.4084 34.4617 53.4491 33.5898 53.9179 33.1639C54.5089 32.6367 55.4566 32.1298 56.1801 32.2109C57.3316 32.3427 57.9226 33.3768 57.5252 34.4921C56.8832 36.2866 56.2107 38.1115 55.1917 39.7033C54.3459 41.0314 53.8058 42.2582 53.7548 43.8804C53.5918 49.6188 52.4709 55.1747 49.4546 60.1425C48.4865 61.7444 47.1618 63.3058 45.6333 64.3804C42.9329 66.2763 40.2019 65.2524 39.0708 62.1297C38.5613 60.7103 38.2861 59.1997 38.0314 57.7093C37.5626 54.9111 37.2162 52.1027 36.7678 49.3045C36.5946 48.2399 36.2685 47.2058 36.0137 46.1514C35.6978 46.1412 35.3717 46.121 35.0355 46.0906Z" fill="white"/>
<path d="M50.3568 8.15358C52.9858 8.03192 52.8432 7.2107 53.6074 11.0532C54.2596 10.7389 54.8506 10.2624 55.4926 10.1914C56.104 10.1205 57.0313 10.2928 57.3065 10.6983C57.5612 11.0735 57.3269 12.0468 56.9702 12.503C56.4607 13.1823 55.6455 13.6385 54.6774 14.409C55.5334 14.7436 56.1958 14.8146 56.5524 15.1796C57.0517 15.6865 57.3371 16.4063 57.7141 17.0349C57.0517 17.3391 56.4097 17.8359 55.7372 17.8866C55.0748 17.9373 54.3411 17.623 53.7093 17.3188C51.4471 16.2238 49.6129 16.7916 47.9111 18.8092C49.8371 20.3908 51.7324 21.6682 54.3513 20.3806C54.6265 20.2488 54.9322 20.188 55.2277 20.1069C56.2875 19.8129 57.4288 19.2147 58.1828 20.5631C58.6516 21.4046 58.1421 22.0434 56.2569 23.1586C56.8072 24.284 59.2834 24.6692 57.9892 26.4232C56.8072 28.0251 55.4519 26.1495 54.0252 26.0481C54.0252 26.8591 54.1679 27.6702 53.9845 28.4002C53.8316 28.9781 53.2814 29.4546 52.9043 29.9818C52.3133 29.5459 51.5898 29.2113 51.1822 28.6537C50.8663 28.2076 50.8663 27.4877 50.8561 26.8896C50.7949 23.9697 49.0117 22.6517 46.2501 22.0434C45.7508 24.3549 45.7916 26.4029 48.064 27.8527C48.655 28.2279 49.2562 28.7145 49.6129 29.2924C49.9288 29.8095 49.9186 30.5293 50.0613 31.168C49.3479 31.31 48.6244 31.6243 47.9315 31.5533C47.4118 31.5026 46.9329 30.9653 46.1992 30.4887C46.0565 31.5127 46.1075 32.3441 45.8018 33.0132C45.5572 33.5607 44.905 34.24 44.4057 34.2603C43.9471 34.2704 43.295 33.5708 43.0402 33.0335C42.7549 32.4455 42.816 31.6851 42.7243 31.0261C42.4084 30.9957 42.1741 30.9044 42.0314 30.9754C41.0837 31.462 40.0851 32.5976 39.1272 31.2897C38.0878 29.8804 39.4125 29.0187 40.35 28.3394C42.4288 26.8287 43.6516 25.095 42.5307 22.2664C40.401 22.8342 39.0457 24.0305 38.8419 26.3319C38.8215 26.5347 38.7909 26.7375 38.7501 26.9301C38.5362 28.1974 38.6381 29.9311 36.8853 29.921C34.7658 29.921 36.0396 27.8426 35.3568 26.7172C34.562 27.1025 33.7875 27.6702 32.9417 27.8122C32.4017 27.9034 31.5966 27.4877 31.2196 27.0416C31.0056 26.7882 31.2604 25.8656 31.5864 25.5107C32.1877 24.8517 33.0029 24.3955 33.9506 23.6959C33.2169 23.3005 32.5239 23.0978 32.1061 22.6517C31.6272 22.1346 31.3724 21.4046 31.026 20.7659C31.6985 20.4719 32.3711 19.9852 33.064 19.9345C33.7264 19.894 34.4601 20.2286 35.0817 20.5429C37.3541 21.6986 39.1068 20.9788 40.727 19.1133C38.954 17.4912 37.1503 16.751 34.9288 17.917C34.8371 17.9677 34.7454 18.0082 34.6435 18.0285C33.4411 18.2921 32.0246 19.6202 31.0973 18.0386C30.0477 16.2441 32.2896 16.1225 33.1455 15.1086C32.4017 14.6017 31.5864 14.1961 30.9852 13.5878C30.6388 13.233 30.3229 12.3205 30.5267 12.0772C30.8935 11.621 31.6782 11.185 32.2284 11.2458C33.0946 11.3472 33.9098 11.8643 35.0511 12.3307C35.0511 11.2965 34.9186 10.4145 35.1021 9.59325C35.2142 9.12688 35.795 8.48815 36.2332 8.43746C36.6713 8.38677 37.4356 8.86328 37.6088 9.28909C38.0572 10.4043 38.4241 11.6007 38.526 12.7869C38.6992 14.8754 40.3602 15.2708 41.797 15.9298C42.011 16.0312 42.5918 15.7676 42.7345 15.5243C43.3765 14.3888 42.7243 11.9961 41.5423 10.891C40.8697 10.2725 40.187 9.66422 39.494 9.06605C38.7196 8.38677 38.3018 7.52499 38.9743 6.67336C39.6775 5.77103 40.5844 6.1056 41.3894 6.71391C41.6951 6.93696 42.0518 7.09917 42.6632 7.45402C42.7753 6.45031 42.7141 5.64937 42.9791 4.95995C43.1931 4.41247 43.7841 3.98665 44.2121 3.5C44.6706 3.94609 45.3228 4.32122 45.5266 4.8687C45.7916 5.58854 45.71 6.43003 45.7712 7.26139C46.9736 6.8964 48.0538 6.34892 49.1543 6.32865C49.5517 6.31851 49.9797 7.53513 50.3975 8.19413C49.3989 8.99508 48.4512 9.86699 47.3914 10.5767C45.384 11.9251 45.3738 13.6892 46.1075 16.3861C47.5545 14.9768 49.0015 14.0948 49.6129 12.8274C50.2854 11.4587 50.153 9.72505 50.3568 8.15358Z" fill="white"/>
</svg>
