<svg width="70" height="70" viewBox="0 0 70 70" fill="none" xmlns="http://www.w3.org/2000/svg">
<path d="M23.4215 38.5881C21.9914 38.5881 20.5408 38.4468 19.1412 38.6184C16.6793 38.9213 15.1061 38.0127 14.0233 35.8118C10.693 29.0478 9.22199 22.1324 11.8474 14.7828C13.7679 9.43216 17.9052 6.73665 23.3296 6.11073C26.2104 5.77757 29.224 6.14101 32.1354 6.48426C34.1887 6.72655 36.1399 6.70636 38.1727 6.32273C42.2283 5.56557 46.2634 5.60595 50.2373 7.01933C55.437 8.87691 58.0113 12.9151 58.8796 17.8922C60.0033 24.3332 58.7876 30.5117 55.4778 36.256C54.5073 37.9319 53.353 38.7193 51.3303 38.6184C48.0716 38.4569 44.8026 38.5376 41.5336 38.5982C40.3691 38.6184 38.7244 37.9622 38.8061 40.2741C38.8878 42.5456 40.553 41.7783 41.6869 41.8288C43.8219 41.9297 45.9774 41.849 48.1124 41.8692C48.7152 41.8793 49.4405 41.7682 49.9104 42.0509C50.5437 42.4244 51.4631 43.2018 51.3814 43.6561C51.2486 44.3729 50.5029 45.1401 49.8184 45.5439C49.277 45.867 48.4291 45.7055 47.714 45.7156C45.2623 45.7358 42.8106 45.6752 40.3691 45.7862C39.8481 45.8064 39.0513 46.3415 38.9287 46.7958C38.6427 47.8154 39.4088 48.1789 40.3691 48.1789C42.2079 48.1789 44.0467 48.1991 45.8855 48.2193C46.9989 48.2294 47.9899 48.5019 48.0614 49.8144C48.1329 51.1974 47.2748 51.8335 45.9774 51.8738C44.1386 51.9344 42.2998 51.8335 40.4712 51.9647C39.9502 52.0051 39.4701 52.6007 38.9593 52.944C39.4088 53.368 39.797 53.9636 40.3384 54.1655C40.982 54.3977 41.7482 54.2463 42.4633 54.317C43.587 54.428 44.4553 54.852 44.4451 56.1544C44.4349 57.4062 43.6687 57.9413 42.4939 58.0119C41.7788 58.0523 41.0433 57.9413 40.3589 58.1028C39.8583 58.2138 39.1432 58.5874 39.0513 58.971C38.9491 59.3748 39.4088 59.9705 39.7255 60.4147C39.8787 60.6166 40.4202 60.5863 40.5223 60.7781C40.8594 61.4444 41.3396 62.2117 41.2374 62.8578C41.1659 63.3323 40.2976 64.039 39.7664 64.0592C36.6098 64.1803 33.443 64.2106 30.2864 64.0895C29.6837 64.0693 28.7643 63.2919 28.6315 62.7266C28.4987 62.1511 29.1422 61.3738 29.4896 60.7175C29.5611 60.5863 29.939 60.6267 30.031 60.4853C30.3681 59.9705 30.8074 59.4253 30.8584 58.86C30.8789 58.6278 30.031 58.1735 29.5304 58.0826C28.7438 57.9312 27.7938 58.2239 27.1196 57.9009C26.4351 57.5778 25.6894 56.8106 25.5157 56.1039C25.2501 55.064 26.1082 54.4684 27.14 54.3574C28.0492 54.2564 28.9992 54.3674 29.8777 54.1453C30.3068 54.0444 30.8584 53.4286 30.8789 53.0146C30.8993 52.6714 30.2557 52.0152 29.8573 51.9748C28.5497 51.8335 27.2115 51.9142 25.8835 51.9041C25.0662 51.894 24.1366 52.0859 23.4726 51.7628C22.778 51.4296 22.022 50.6422 21.8688 49.9355C21.644 48.8957 22.5328 48.3 23.5646 48.2495C24.9947 48.1789 26.4249 48.2092 27.8551 48.189C28.5702 48.1789 29.3363 48.3 29.9799 48.0779C30.3987 47.9366 30.9095 47.2804 30.8993 46.8665C30.8891 46.4828 30.2455 45.8266 29.8471 45.8064C27.7121 45.6954 25.5668 45.7458 23.4215 45.7257C22.4 45.7156 21.3784 45.766 20.3569 45.6752C19.2128 45.5742 18.3751 44.9281 18.3955 43.757C18.4159 42.5758 19.3047 41.9398 20.4386 41.9095C23.4011 41.8389 26.3636 41.8187 29.3159 41.8692C30.7052 41.8893 31.0627 41.2634 31.0219 40.0318C30.9912 39.0323 30.6439 38.5578 29.5917 38.578C27.5486 38.6184 25.5055 38.5881 23.4624 38.5881C23.4215 38.5881 23.4215 38.5881 23.4215 38.5881ZM34.9549 34.4792C34.9549 34.4792 34.9549 34.4691 34.9549 34.4792C39.8481 34.4792 44.7515 34.4489 49.6448 34.4893C50.9421 34.4994 51.9943 34.3985 52.6073 32.975C54.8036 27.8464 56.0295 22.6472 54.3541 17.1048C53.118 13.006 50.0534 10.1691 45.7731 10.1691C38.5916 10.1893 31.4101 10.472 24.2081 10.1893C19.795 10.0177 16.5976 13.006 15.3819 17.2158C13.9109 22.304 14.8303 27.1599 16.7304 31.9755C17.4557 33.8028 18.4262 34.6206 20.5714 34.5398C25.3625 34.348 30.1638 34.4792 34.9549 34.4792Z" fill="white"/>
</svg>
