<svg width="70" height="70" viewBox="0 0 70 70" fill="none" xmlns="http://www.w3.org/2000/svg">
<path d="M34.6711 43.9224C34.0936 47.4495 33.5367 50.9868 32.9488 54.5139C32.6291 56.4424 32.4229 58.4122 31.8556 60.2685C30.6284 64.3318 27.2457 65.3734 23.9765 62.6405C22.7493 61.6092 21.7695 60.1963 20.9136 58.8144C17.7269 53.6579 16.7677 47.8826 16.5202 41.963C16.4584 40.4573 16.0871 39.2713 15.2105 38.0028C10.8893 31.7428 9.70335 24.699 10.9925 17.3459C12.1063 10.9621 16.8915 6.76475 23.6053 6.04284C26.3382 5.74377 29.1433 6.15629 31.9175 6.19754C34.0626 6.23879 36.218 6.39349 38.3322 6.1666C42.0449 5.77471 45.706 5.53751 49.3568 6.57912C55.1217 8.21888 58.5663 12.1069 59.4326 17.8718C60.5464 25.225 59.3707 32.2275 54.8845 38.4669C54.2245 39.3744 53.9461 40.7048 53.8739 41.8702C53.482 48.4395 52.3888 54.782 48.4596 60.2891C47.6964 61.3617 46.7785 62.4239 45.6957 63.1355C42.643 65.1569 39.6316 64.1462 38.7035 60.6295C37.8166 57.2571 37.4143 53.761 36.7749 50.3268C36.383 48.2126 35.9705 46.1088 35.558 44.0049C35.2692 43.974 34.9702 43.9431 34.6711 43.9224ZM42.9524 59.6291C43.4062 59.4125 43.7362 59.3403 43.9425 59.1444C44.3137 58.7938 44.6644 58.4122 44.9325 57.979C48.3049 52.6988 49.6455 46.872 49.594 40.6532C49.5837 39.4982 49.6043 38.0028 50.2746 37.2499C54.8433 32.1759 55.8746 26.1532 55.3383 19.6869C54.9258 14.6954 52.1619 11.3437 47.2426 10.5084C44.3653 10.0237 41.323 10.4877 38.3528 10.5084C36.218 10.5187 34.0729 10.5496 31.9381 10.4981C29.3702 10.4362 26.792 10.0133 24.255 10.2299C19.016 10.6734 15.6849 14.2107 14.9836 19.3982C14.3029 24.3587 14.5608 29.5358 17.4484 33.3929C20.5836 37.58 20.5732 42.0352 21.1301 46.6038C21.1508 46.8101 21.1508 47.0163 21.192 47.2226C21.9758 51.0797 23.1309 54.8026 25.3585 58.0925C25.7916 58.7319 26.5548 59.1444 27.1632 59.6601C27.4829 58.9485 27.978 58.2781 28.1017 57.5356C28.5864 54.6995 28.7721 51.7912 29.4115 48.9964C30.0199 46.3254 30.68 43.5305 32.0103 41.1792C33.5882 38.3637 36.6821 38.5494 38.5488 41.2307C39.1779 42.1383 39.6729 43.2212 39.941 44.2937C40.4154 46.181 40.6836 48.1198 41.0033 50.0484C41.5292 53.2351 41.4364 56.5662 42.9524 59.6291Z" fill="white"/>
<path d="M18.1704 21.2852C20.2124 20.3983 22.244 20.0271 23.4713 18.8308C24.5851 17.7376 24.8017 15.7369 25.5958 13.6846C26.4414 15.7472 26.7405 17.7582 27.8956 18.9029C29.0815 20.0889 31.1029 20.4293 33.1242 21.2956C31.1854 22.0897 29.1434 22.3887 27.9781 23.5644C26.8024 24.7504 26.4827 26.7924 25.637 28.824C24.8532 26.8646 24.5748 24.8123 23.4197 23.6469C22.2337 22.4609 20.1814 22.1412 18.1704 21.2852Z" fill="white"/>
<path d="M41.1475 29.2883C38.2495 29.804 36.8985 31.155 36.486 33.527C35.8363 31.2478 34.8462 29.5565 32.1958 29.2677C34.6297 28.6592 35.8982 27.2154 36.3416 24.8125C37.7958 27.9476 37.7958 27.9476 41.1475 29.2883Z" fill="white"/>
</svg>
