<svg width="70" height="70" viewBox="0 0 70 70" fill="none" xmlns="http://www.w3.org/2000/svg">
<path d="M34.6929 43.8699C34.1154 47.3759 33.5276 50.882 32.9502 54.3777C32.6615 56.0998 32.4346 57.8425 32.0634 59.5542C31.6303 61.5444 30.7641 63.4006 28.6501 63.9574C26.3197 64.5761 24.3913 63.4315 22.9168 61.7094C20.1841 58.5127 18.493 54.7386 17.6474 50.6654C17.0287 47.6544 16.9153 44.5402 16.4306 41.4982C16.245 40.3536 15.8428 39.1368 15.2035 38.1778C10.9653 31.8463 9.7382 24.8652 10.9344 17.5025C11.9965 11.0473 16.9668 6.68537 23.7417 6.02541C26.4743 5.7573 29.2792 6.16978 32.0427 6.22134C34.1773 6.25227 36.3428 6.37601 38.4567 6.14915C43.1177 5.64387 47.6858 5.49951 52.058 7.63406C56.4096 9.76861 58.8226 13.3984 59.4516 18.0078C60.4519 25.3808 59.3279 32.3619 54.7907 38.5696C54.1307 39.4668 53.9245 40.8279 53.8523 41.9932C53.4811 48.0256 52.5324 53.893 49.2429 59.0902C48.3252 60.5442 47.1908 61.9982 45.8297 62.9984C42.7877 65.2464 39.6116 64.1636 38.6629 60.4926C37.7864 57.1206 37.3946 53.6249 36.7656 50.1808C36.3737 48.0771 35.92 45.9838 35.4972 43.8802C35.2291 43.8802 34.961 43.8802 34.6929 43.8699ZM24.3913 55.3986C24.3295 54.1818 24.1851 52.9547 24.216 51.7379C24.3089 47.9431 24.1954 44.1277 24.6904 40.3845C25.0513 37.7137 24.8966 35.2905 23.8551 32.8672C23.288 31.5472 22.5765 30.2686 22.1124 28.9177C20.4832 24.1227 22.8136 19.5546 27.423 19.5752C32.6099 19.5958 37.7864 19.5855 42.9733 19.5958C46.3143 19.6061 48.5108 22.1532 48.3767 25.5251C48.2839 27.5978 47.5208 29.7014 46.7578 31.6813C45.8091 34.1149 45.1388 36.5176 45.3038 39.1677C45.5925 43.8802 45.7369 48.5927 45.9431 53.3053C45.9637 53.8621 46.005 54.4189 46.0359 54.9758C48.7583 50.5004 49.6348 45.6642 49.5626 40.5907C49.542 39.4461 49.6244 37.9612 50.2947 37.2085C54.9454 32.0422 55.8322 25.886 55.2753 19.338C54.935 15.3267 52.2024 11.2741 47.758 10.6864C44.7469 10.2842 41.6121 10.243 38.5908 10.542C36.2087 10.7792 33.9298 11.0576 31.5684 10.4698C30.4856 10.2017 29.3307 10.1811 28.2067 10.1089C20.4316 9.60362 14.7601 12.6044 14.7601 22.5038C14.7601 27.4122 15.75 32.1969 18.9879 36.0535C20.3182 37.6312 20.7513 39.1161 20.6894 41.0651C20.5347 46.0766 21.669 50.8407 24.3913 55.3986ZM41.5709 53.8518C41.7978 53.8415 42.0246 53.8415 42.2515 53.8312C42.2515 50.5417 42.5299 47.211 42.1587 43.9627C41.8596 41.3641 41.1584 38.6418 39.9313 36.3526C37.9514 32.6609 32.7955 32.6094 30.4032 36.0742C29.5473 37.3116 29.0007 38.8377 28.6192 40.302C27.5055 44.6433 28.0108 49.0671 28.3098 53.4909C28.8151 52.0369 28.9698 50.5211 29.3617 49.0774C30.0526 46.5097 30.5063 43.7874 31.754 41.4982C33.5483 38.219 36.8171 38.4356 38.8176 41.6632C39.2507 42.3541 39.6323 43.1275 39.8076 43.9112C40.2613 45.9117 40.6222 47.9431 40.9728 49.9642C41.2203 51.2429 41.3853 52.5525 41.5709 53.8518Z" fill="white"/>
</svg>
