<svg width="70" height="70" viewBox="0 0 70 70" fill="none" xmlns="http://www.w3.org/2000/svg">
<path d="M69.4661 49.7511C69.3401 54.6315 65.9396 57.119 61.1956 55.7755C60.8912 55.6916 60.5659 55.6811 60.2825 55.5551C51.3508 51.5668 41.9258 50.8427 32.3329 51.4829C28.712 51.7243 25.9622 50.5068 23.4012 47.9249C17.2089 41.6696 10.7856 35.6451 4.45683 29.5367C4.07899 29.1694 3.69066 28.8231 3.32331 28.4452C0.269116 25.2546 0.468531 21.7701 3.85858 18.9678C6.54544 16.7532 9.28477 16.8057 12.0136 19.3876C16.4322 23.5543 20.7459 27.8365 25.112 32.0662C27.1481 34.0393 29.2263 35.96 31.1994 37.9751C32.2385 39.0352 33.372 39.518 34.8414 39.4025C35.7755 39.3291 36.7411 39.4865 37.6647 39.3711C47.3415 38.1431 56.2837 41.0398 65.1629 44.283C68.1332 45.364 69.5396 47.1692 69.4661 49.7511ZM7.90986 21.4657C7.3431 21.6756 7.02823 21.7491 6.76584 21.8855C4.98161 22.8301 4.82417 24.2575 6.50346 25.8948C13.3885 32.6539 20.3261 39.3501 27.2111 46.1092C28.2712 47.1482 29.4257 47.5366 30.8741 47.5156C35.0723 47.4631 39.2705 47.61 43.4582 47.4631C46.9742 47.3372 50.3223 47.8829 53.6179 49.0689C56.4726 50.0975 59.4009 50.9266 62.2767 51.8922C63.5991 52.333 64.3967 52.1441 64.89 50.6537C65.3938 49.1214 64.7326 48.5126 63.4626 48.1033C63.0638 47.9774 62.665 47.8514 62.2662 47.715C49.5456 43.5483 49.5456 43.4433 36.1638 43.6952C32.5114 43.7687 29.7615 42.6561 27.2321 40.0847C21.5645 34.3332 15.729 28.7496 9.94599 23.1135C9.29526 22.4838 8.52909 21.959 7.90986 21.4657Z" fill="white"/>
<path d="M34.4742 14.2342C33.9179 17.1205 33.7605 19.7549 32.8579 22.1059C31.7454 24.9921 29.4573 25.3385 27.1273 23.2184C23.9472 20.3321 20.8405 17.3619 17.7968 14.3287C15.3828 11.9147 15.6767 10.0045 18.7204 8.37771C22.4673 6.37307 26.2562 6.5305 29.6777 9.01794C31.1471 10.0885 32.5325 10.5398 34.2853 10.4558C36.164 10.3614 38.0637 10.3614 39.9424 10.4558C44.6234 10.6972 47.8455 13.7304 48.0344 18.4324C48.2443 23.5647 48.0869 28.7075 48.1394 33.8503C48.1499 35.1728 47.7196 35.729 46.3446 35.729C44.9172 35.729 44.235 35.2777 44.256 33.7454C44.298 28.9174 44.319 24.1 44.235 19.2721C44.1931 16.2913 42.9651 14.5911 40.4671 14.2972C38.3051 14.0348 36.1115 14.2342 34.4742 14.2342ZM23.8422 10.9386C23.5274 10.9386 23.1915 10.8651 22.9081 10.9596C22.3414 11.138 21.7956 11.4109 21.2393 11.6523C21.5017 12.1561 21.6697 12.7753 22.058 13.1637C24.1466 15.2208 26.2772 17.2464 28.4183 19.2511C29.3209 20.0907 29.8352 19.7968 30.0661 18.6108C30.8637 14.633 27.9145 10.9806 23.8422 10.9386Z" fill="white"/>
<path d="M38.7246 65.316C37.1503 65.316 35.576 65.3475 34.0122 65.3055C30.3492 65.211 29.2262 64.0355 29.1422 60.2991C29.0268 55.2193 30.2128 54.0228 35.3556 54.0123C37.7695 54.0018 40.173 54.0333 42.587 54.0018C45.9456 53.9598 48.6114 54.8939 48.2231 59.5959C48.1811 60.1207 48.2336 60.6455 48.2021 61.1703C48.0447 63.8256 46.7747 65.1481 44.0774 65.2845C42.2826 65.379 40.4984 65.3055 38.7246 65.316C38.7246 65.3055 38.7246 65.3055 38.7246 65.316ZM38.4623 61.4326C39.9211 61.4326 41.38 61.3907 42.8389 61.4431C44.0354 61.4851 44.5182 61.0023 44.4867 59.8058C44.4657 58.7143 44.2348 58.0216 42.9333 58.0426C40.1205 58.0951 37.2972 58.0846 34.4844 58.0426C33.141 58.0216 32.9941 58.7983 33.0046 59.8583C33.0151 60.8344 33.267 61.4536 34.39 61.4326C35.7439 61.4012 37.1083 61.4221 38.4623 61.4326Z" fill="white"/>
</svg>
