<svg width="20" height="20" viewBox="0 0 20 20" fill="none" xmlns="http://www.w3.org/2000/svg">
<path fill-rule="evenodd" clip-rule="evenodd" d="M2.19643 8.25C2.19643 4.90671 4.90671 2.19643 8.25 2.19643C11.5933 2.19643 14.3036 4.90671 14.3036 8.25C14.3036 11.5933 11.5933 14.3036 8.25 14.3036C4.90671 14.3036 2.19643 11.5933 2.19643 8.25ZM8.25 0.375C3.90076 0.375 0.375 3.90076 0.375 8.25C0.375 12.5992 3.90076 16.125 8.25 16.125C10.1161 16.125 11.8305 15.4759 13.18 14.3913C13.2166 14.4451 13.259 14.4965 13.3071 14.5445L18.1301 19.3675C18.5068 19.7442 19.0892 19.7726 19.4309 19.4309C19.7726 19.0892 19.7442 18.5068 19.3675 18.1301L14.5445 13.3071C14.4965 13.259 14.4451 13.2167 14.3913 13.18C15.4759 11.8306 16.125 10.1161 16.125 8.25C16.125 3.90076 12.5992 0.375 8.25 0.375Z" fill="#96ACB3"/>
</svg>
