<?xml version="1.0" encoding="utf-8"?><svg viewBox="0 0 502.66 502.66" xmlns="http://www.w3.org/2000/svg" xmlns:xlink="http://www.w3.org/1999/xlink"><style>:root>svg{display:none}:root>svg:target{display:block}</style><svg viewBox="0 0 24 25" id="basket" xmlns="http://www.w3.org/2000/svg"><g clip-path="url(#aa)" stroke-width="2" stroke-linecap="round" stroke-linejoin="round"><path d="M9.419 23.5c.58 0 1.052-.48 1.052-1.073 0-.592-.471-1.073-1.052-1.073-.582 0-1.053.48-1.053 1.073S8.837 23.5 9.42 23.5zm11.575 0c.58 0 1.052-.48 1.052-1.073 0-.592-.471-1.073-1.052-1.073-.581 0-1.053.48-1.053 1.073s.472 1.073 1.053 1.073zM1 1.5h4l2.68 13.651c.091.47.342.891.708 1.191.365.3.823.46 1.292.45h9.72c.47.01.927-.15 1.293-.45.365-.3.616-.721.707-1.19L23 6.596H6"/></g><defs><clipPath id="aa"><path transform="translate(0 .5)" d="M0 0h24v24H0z"/></clipPath></defs></svg><svg viewBox="0 0 12 12" id="chevron-right" xmlns="http://www.w3.org/2000/svg"><path d="M4.207.293a1 1 0 00-1.414 1.414L4.207.293zM8.5 6l.707.707a1 1 0 000-1.414L8.5 6zm-5.707 4.293a1 1 0 101.414 1.414l-1.414-1.414zm0-8.586l5 5 1.414-1.414-5-5-1.414 1.414zm5 3.586l-5 5 1.414 1.414 5-5-1.414-1.414z"/></svg><svg viewBox="0 0 10 10" id="close" xmlns="http://www.w3.org/2000/svg"><path fill-rule="evenodd" clip-rule="evenodd" d="M9.192 9.9l.708-.708L5.657 4.95 9.899.707 9.192 0 4.95 4.243.707 0 0 .707 4.243 4.95 0 9.192l.707.707L4.95 5.657l4.242 4.242z"/></svg><svg viewBox="0 0 502.664 502.664" id="icon" xmlns="http://www.w3.org/2000/svg"><path d="M153.821 358.226L0 274.337v-46.463l153.821-83.414v54.574L46.636 250.523l107.185 53.431v54.272zm26.273 29.358L282.103 115.08h32.227L212.084 387.584h-31.99zm168.749-29.358v-54.272l107.164-52.999-107.164-52.59v-53.927l153.821 83.522v46.183l-153.821 84.083z"/></svg></svg>