<svg width="24" height="24" viewBox="0 0 24 24" fill="none" xmlns="http://www.w3.org/2000/svg">
<circle cx="12" cy="12" r="9.5" stroke="#B5C9CE"/>
<path d="M13.5556 9.6648C13.5556 9.23469 13.3935 8.87003 13.0694 8.57083C12.7546 8.27162 12.3519 8.12202 11.8611 8.12202C11.0648 8.12202 10.4167 8.46798 9.91667 9.15989L9.25 8.41655C9.50926 7.99579 9.875 7.65451 10.3472 7.39271C10.8287 7.1309 11.3565 7 11.9306 7C12.8009 7 13.4861 7.23375 13.9861 7.70126C14.4954 8.16877 14.75 8.74381 14.75 9.42637C14.75 9.85647 14.6759 10.2445 14.5278 10.5905C14.3796 10.9364 14.1944 11.2076 13.9722 11.4039C13.75 11.6003 13.5139 11.8013 13.2639 12.007C13.0231 12.2127 12.8009 12.3997 12.5972 12.568C12.4028 12.7363 12.25 12.9514 12.1389 13.2132C12.037 13.475 12.0185 13.7742 12.0833 14.1108L11.0833 14.1248C10.9907 13.6386 11.0093 13.2225 11.1389 12.8766C11.2778 12.5306 11.4769 12.2501 11.7361 12.0351C11.9954 11.82 12.2593 11.6143 12.5278 11.418C12.8056 11.2216 13.0463 10.9785 13.25 10.6886C13.4537 10.3894 13.5556 10.0482 13.5556 9.6648ZM10.8056 16.2006C10.8056 16.0042 10.8796 15.8312 11.0278 15.6816C11.1759 15.532 11.3704 15.4572 11.6111 15.4572C11.8148 15.4572 11.9861 15.5367 12.125 15.6957C12.2731 15.8453 12.3472 16.0136 12.3472 16.2006C12.3472 16.4156 12.2778 16.6026 12.1389 16.7616C12 16.9205 11.8241 17 11.6111 17C11.3704 17 11.1759 16.9205 11.0278 16.7616C10.8796 16.6026 10.8056 16.4156 10.8056 16.2006Z" fill="#B5C9CE"/>
</svg>
