<svg width="47" height="15" viewBox="0 0 47 15" fill="none" xmlns="http://www.w3.org/2000/svg">
<g clip-path="url(#clip0_401_2295)">
<path d="M30.6336 0.0229492C27.3483 0.0229492 24.4124 1.72149 24.4124 4.85967C24.4124 8.45857 29.6193 8.70715 29.6193 10.5151C29.6193 11.2764 28.7447 11.9579 27.2509 11.9579C25.1308 11.9579 23.5463 11.0057 23.5463 11.0057L22.8684 14.1724C22.8684 14.1724 24.6937 14.9768 27.1171 14.9768C30.709 14.9768 33.5354 13.1948 33.5354 10.003C33.5354 6.20008 28.3067 5.95889 28.3067 4.28078C28.3067 3.68444 29.0247 3.03102 30.5142 3.03102C32.1949 3.03102 33.5661 3.72353 33.5661 3.72353L34.2296 0.66496C34.2296 0.66496 32.7376 0.0229492 30.6336 0.0229492ZM0.576133 0.253785L0.496582 0.715455C0.496582 0.715455 1.87872 0.96777 3.12356 1.47108C4.72639 2.04823 4.84057 2.38421 5.11051 3.42777L8.05207 14.7387H11.9952L18.07 0.253785H14.1359L10.2325 10.1022L8.63966 1.75421C8.49359 0.798799 7.75367 0.253785 6.84797 0.253785H0.576133ZM19.652 0.253785L16.5658 14.7387H20.3173L23.3927 0.253785H19.652ZM40.5756 0.253785C39.6709 0.253785 39.1916 0.736884 38.8399 1.58109L33.3437 14.7387H37.2778L38.039 12.5458H42.8319L43.2948 14.7387H46.7661L43.7377 0.253785H40.5756ZM41.0872 4.16717L42.2534 9.60262H39.1292L41.0872 4.16717Z" fill="#1434CB"/>
</g>
<defs>
<clipPath id="clip0_401_2295">
<rect width="46.3158" height="15" fill="white" transform="translate(0.473633)"/>
</clipPath>
</defs>
</svg>
