<svg width="28" height="28" viewBox="0 0 28 28" fill="none" xmlns="http://www.w3.org/2000/svg">
<circle cx="14" cy="14" r="14" fill="#B5C9CE"/>
<g clip-path="url(#clip0_401_2304)">
<path fill-rule="evenodd" clip-rule="evenodd" d="M8.55928 9.30762H6.87452C6.39315 9.30762 6.29688 9.53021 6.29688 9.7756C6.29688 10.2139 6.86805 12.3879 8.95636 15.263C10.3486 17.2266 12.31 18.291 14.0949 18.291C15.1659 18.291 15.2984 18.0545 15.2984 17.6474V16.1633C15.2984 15.6905 15.3998 15.5961 15.7389 15.5961C15.9888 15.5961 16.4172 15.7189 17.4167 16.6656C18.5591 17.7876 18.7474 18.291 19.3899 18.291H21.0747C21.5561 18.291 21.7967 18.0545 21.6579 17.588C21.506 17.1231 20.9606 16.4484 20.2368 15.6488C19.8441 15.1929 19.2551 14.7021 19.0767 14.4566C18.8268 14.141 18.8982 14.0007 19.0767 13.7203C19.0767 13.7203 21.1293 10.8801 21.3435 9.91593C21.4506 9.56525 21.3435 9.30762 20.834 9.30762H19.1492C18.7209 9.30762 18.5234 9.53021 18.4162 9.7756C18.4162 9.7756 17.5595 11.8268 16.3458 13.1592C15.9531 13.5449 15.7746 13.6677 15.5604 13.6677C15.4533 13.6677 15.2983 13.5449 15.2983 13.1943V9.91593C15.2983 9.49513 15.174 9.30762 14.817 9.30762H12.1695C11.9018 9.30762 11.7408 9.50289 11.7408 9.68799C11.7408 10.0869 12.3476 10.1789 12.4102 11.3009V13.7378C12.4102 14.2721 12.3119 14.369 12.0978 14.369C11.5266 14.369 10.1373 12.3086 9.3133 9.95097C9.15184 9.49272 8.98985 9.30762 8.55928 9.30762V9.30762Z" fill="#F6F8FC"/>
</g>
<defs>
<clipPath id="clip0_401_2304">
<rect width="15.4" height="15.4" fill="white" transform="translate(6.29688 6.09912)"/>
</clipPath>
</defs>
</svg>
