<svg width="28" height="28" viewBox="0 0 28 28" fill="none" xmlns="http://www.w3.org/2000/svg">
<circle cx="14" cy="14" r="14" fill="#B5C9CE"/>
<g clip-path="url(#clip0_401_2314)">
<path fill-rule="evenodd" clip-rule="evenodd" d="M20.8836 9.22284C21.122 9.47062 21.2913 9.77744 21.3745 10.1123C21.5965 11.3532 21.7043 12.6122 21.6965 13.8731C21.7009 15.1151 21.5931 16.355 21.3745 17.5774C21.2913 17.9122 21.122 18.2191 20.8836 18.4668C20.6451 18.7146 20.3461 18.8946 20.0166 18.9885C18.8126 19.3131 13.9969 19.3131 13.9969 19.3131C13.9969 19.3131 9.18112 19.3131 7.97719 18.9885C7.65438 18.8995 7.35981 18.7281 7.12193 18.4907C6.88406 18.2534 6.71093 17.9583 6.61926 17.6338C6.39721 16.3929 6.28942 15.134 6.29728 13.8731C6.29114 12.6216 6.39892 11.3722 6.61926 10.1405C6.70241 9.80566 6.87175 9.49884 7.11018 9.25107C7.3486 9.00329 7.64768 8.82333 7.97719 8.72935C9.18112 8.40479 13.9969 8.40479 13.9969 8.40479C13.9969 8.40479 18.8126 8.40479 20.0166 8.70113C20.3461 8.7951 20.6451 8.97507 20.8836 9.22284ZM16.2301 13.8854L12.5405 15.9836V11.7871L16.2301 13.8854Z" fill="#F6F8FC"/>
</g>
<defs>
<clipPath id="clip0_401_2314">
<rect width="15.4" height="15.4" fill="white" transform="translate(6.29688 6.09912)"/>
</clipPath>
</defs>
</svg>
